<svg width="154" height="104" viewBox="0 0 154 104" fill="none" xmlns="http://www.w3.org/2000/svg">
<path d="M24.165 90.12C24.225 90.13 24.255 90.165 24.255 90.225C24.255 90.325 24.205 90.36 24.105 90.33C23.625 90.2 22.91 90.12 21.96 90.09C21.66 90.08 20.735 90.075 19.185 90.075C18.605 90.075 17.8 90.11 16.77 90.18C16.69 90.18 16.645 90.15 16.635 90.09C16.635 90.02 16.67 89.98 16.74 89.97C17.42 89.9 17.88 89.815 18.12 89.715C18.9 89.415 19.275 88.865 19.245 88.0649H16.05C15.74 88.465 15.585 88.665 15.585 88.665C15.425 88.905 15.345 89.1349 15.345 89.3549C15.345 89.5449 15.425 89.725 15.585 89.895C15.625 89.945 15.64 89.99 15.63 90.03C15.61 90.07 15.565 90.09 15.495 90.09L9.435 90.135C9.355 90.135 9.315 90.105 9.315 90.045C9.305 89.975 9.335 89.93 9.405 89.91C10.635 89.61 11.25 89.24 11.25 88.8C11.1 88.95 10.91 89.025 10.68 89.025C10.3 89.025 9.855 88.8849 9.345 88.6049C8.835 88.3149 8.385 88.17 7.995 88.17C7.645 88.17 7.29 88.255 6.93 88.425C6.87 88.455 6.825 88.45 6.795 88.41C6.755 88.37 6.755 88.3249 6.795 88.275C6.975 88.015 7.7 87.8049 8.97 87.6449C10.15 87.4949 10.74 87.295 10.74 87.045C10.74 86.875 10.625 86.74 10.395 86.64C10.165 86.53 9.915 86.4749 9.645 86.4749C9.255 86.4749 8.76 86.58 8.16 86.79C7.57 87 7.075 87.1049 6.675 87.1049C6.135 87.1049 5.475 86.92 4.695 86.55C3.915 86.18 3.265 85.995 2.745 85.995C2.425 85.995 2.115 86.095 1.815 86.295C1.795 86.305 1.775 86.3099 1.755 86.3099C1.675 86.3099 1.635 86.275 1.635 86.205C1.635 86.165 1.65 86.135 1.68 86.115C2.12 85.765 2.71 85.59 3.45 85.59C3.84 85.59 4.335 85.645 4.935 85.755C5.545 85.865 6.025 85.92 6.375 85.92C6.555 85.92 6.725 85.865 6.885 85.755C7.055 85.645 7.14 85.505 7.14 85.335C7.14 84.475 6.155 84.045 4.185 84.045C3.955 84.045 3.615 84.055 3.165 84.075C2.715 84.085 2.385 84.0899 2.175 84.0899C1.155 84.0899 0.44 83.91 0.03 83.55C0.00999993 83.53 0 83.51 0 83.49C0 83.4 0.04 83.3549 0.12 83.3549C0.15 83.3549 0.175 83.37 0.195 83.4C0.285 83.53 0.505 83.645 0.855 83.745C1.205 83.835 1.555 83.88 1.905 83.88C2.305 83.88 2.94 83.7299 3.81 83.4299C4.69 83.1299 5.425 82.9799 6.015 82.9799C6.755 82.9799 7.685 83.1849 8.805 83.5949C9.925 84.0049 10.855 84.21 11.595 84.21C11.985 84.21 12.325 84.15 12.615 84.03C12.965 83.88 13.14 83.6849 13.14 83.445C13.14 83.1849 12.795 83.0549 12.105 83.0549C11.935 83.0549 11.69 83.0799 11.37 83.1299C11.05 83.1799 10.78 83.205 10.56 83.205C9.84 83.205 8.955 82.8799 7.905 82.2299C6.865 81.5799 5.995 81.255 5.295 81.255C5.005 81.255 4.615 81.35 4.125 81.54C4.055 81.5699 4.01 81.5499 3.99 81.4799C3.96 81.4199 3.98 81.375 4.05 81.3449C4.95 80.915 5.835 80.6999 6.705 80.6999C7.195 80.6999 7.82 80.855 8.58 81.1649C9.35 81.4749 9.945 81.6299 10.365 81.6299C10.505 81.6299 10.635 81.5899 10.755 81.5099C10.885 81.4199 10.95 81.3249 10.95 81.2249C10.95 80.8849 10.595 80.4799 9.885 80.0099C9.135 79.5299 8.445 79.2899 7.815 79.2899C7.495 79.2899 7.275 79.3099 7.155 79.3499C7.085 79.3799 7.04 79.3599 7.02 79.2899C6.99 79.2099 7.01 79.1599 7.08 79.1399C7.44 79.0199 7.82 78.9599 8.22 78.9599C9.03 78.9599 9.905 79.1349 10.845 79.4849C11.025 79.555 11.765 79.885 13.065 80.4749C13.835 80.8249 14.425 80.9999 14.835 80.9999C15.035 80.9999 15.215 80.9499 15.375 80.85C15.545 80.7399 15.63 80.5949 15.63 80.4149C15.63 80.2149 15.47 80.0499 15.15 79.9199C14.9 79.8199 14.655 79.7699 14.415 79.7699C14.175 79.7699 13.9 79.8399 13.59 79.9799C13.48 80.0299 13.425 79.9949 13.425 79.875C13.425 79.825 13.45 79.79 13.5 79.7699C14.76 79.2899 15.865 79.0499 16.815 79.0499C17.385 79.0499 18.12 79.1649 19.02 79.3949C19.92 79.6249 20.675 79.7399 21.285 79.7399C22.125 79.7399 22.855 79.5149 23.475 79.0649C23.535 79.0249 23.585 79.0249 23.625 79.0649C23.665 79.1049 23.665 79.1549 23.625 79.2149C23.085 80.0249 22.815 81.1949 22.815 82.7249C22.815 85.5049 22.845 87.165 22.905 87.705C23.055 89.175 23.475 89.98 24.165 90.12ZM19.32 83.445V82.6499L17.505 85.5599H19.155V85.125C19.155 84.925 19.035 84.825 18.795 84.825C18.675 84.825 18.565 84.8499 18.465 84.9C18.415 84.9299 18.375 84.9249 18.345 84.8849C18.315 84.8449 18.32 84.805 18.36 84.765C18.56 84.595 18.755 84.425 18.945 84.255C19.195 84.025 19.32 83.7549 19.32 83.445Z" fill="white"/>
<path d="M36.5821 82.4849C36.0921 83.6049 35.6771 84.6849 35.3371 85.7249C35.0771 86.5049 34.8121 87.29 34.5421 88.08C34.2621 88.97 34.1221 89.58 34.1221 89.91C34.1221 90.03 34.1371 90.12 34.1671 90.18C34.1871 90.23 34.1871 90.275 34.1671 90.315C34.1371 90.355 34.0921 90.3649 34.0321 90.3449C33.5521 90.2149 33.0571 90.15 32.5471 90.15C31.7371 90.15 31.0271 90.25 30.4171 90.45C30.3571 90.47 30.3121 90.4649 30.2821 90.4349C30.2521 90.4049 30.2521 90.3599 30.2821 90.2999L30.5521 89.67C30.1421 89.86 29.7271 90.045 29.3071 90.225C28.8971 90.405 28.4871 90.495 28.0771 90.495C27.5371 90.495 27.1271 90.3099 26.8471 89.9399C26.6371 89.6599 26.4771 89.225 26.3671 88.635C25.9071 88.555 25.4621 88.54 25.0321 88.59C24.9621 88.6 24.9171 88.57 24.8971 88.5C24.8871 88.44 24.9171 88.4 24.9871 88.38C25.2071 88.34 25.4671 88.22 25.7671 88.02C26.0671 87.81 26.3271 87.68 26.5471 87.63L26.7271 87.075C26.4171 87.165 26.0421 87.21 25.6021 87.21C25.5021 87.21 25.2871 87.15 24.9571 87.03C24.8871 87.01 24.8571 86.97 24.8671 86.91C24.8771 86.86 24.9171 86.83 24.9871 86.82C25.1371 86.81 25.2871 86.8 25.4371 86.79C25.5871 86.77 25.6621 86.705 25.6621 86.595C25.6621 86.455 25.4121 86.37 24.9121 86.34C24.1721 86.3 23.6171 86.225 23.2471 86.115C23.1771 86.095 23.1521 86.055 23.1721 85.995C23.1821 85.925 23.2221 85.8949 23.2921 85.905C23.3921 85.915 23.4921 85.92 23.5921 85.92C23.8621 85.92 24.1871 85.86 24.5671 85.74C24.9571 85.62 25.2821 85.5599 25.5421 85.5599C25.6621 85.5599 25.9221 85.555 26.3221 85.545C26.6121 85.535 26.8771 85.535 27.1171 85.545L27.4921 84.57C27.1121 84.63 26.7221 84.66 26.3221 84.66C26.1021 84.66 25.8021 84.605 25.4221 84.495C25.0521 84.385 24.7921 84.335 24.6421 84.345C24.5721 84.345 24.5271 84.315 24.5071 84.255C24.4971 84.195 24.5271 84.1549 24.5971 84.1349C24.7671 84.0749 24.9621 84.055 25.1821 84.075C25.5821 84.105 25.7671 84.12 25.7371 84.12C26.3671 84.12 26.6821 83.9599 26.6821 83.6399C26.6821 83.4299 26.5321 83.27 26.2321 83.16C25.9821 83.06 25.7171 83.02 25.4371 83.04C25.3671 83.05 25.3221 83.02 25.3021 82.95C25.2821 82.89 25.3071 82.85 25.3771 82.83C25.6571 82.76 25.8421 82.7249 25.9321 82.7249C26.2221 82.7249 26.5871 82.7949 27.0271 82.9349C27.5071 83.0849 27.8471 83.1699 28.0471 83.1899L28.2871 82.5C28.3071 82.45 28.3421 82.425 28.3921 82.425L31.4521 82.3949C31.5021 82.3949 31.5371 82.405 31.5571 82.425C31.5771 82.4549 31.5771 82.4899 31.5571 82.5299L30.1171 86.34C30.0571 86.5 30.0271 86.6699 30.0271 86.8499C30.0271 87.0099 30.0721 87.1499 30.1621 87.2699C30.2621 87.3799 30.3821 87.4349 30.5221 87.4349C30.7721 87.4349 31.0371 87.16 31.3171 86.61C31.5571 86.1299 31.6771 85.81 31.6771 85.65C31.6771 85.52 31.6171 85.455 31.4971 85.455C31.2871 85.455 31.1321 85.485 31.0321 85.545C30.9821 85.575 30.9371 85.575 30.8971 85.545C30.8671 85.505 30.8671 85.4549 30.8971 85.3949C30.9771 85.2449 31.1771 85.115 31.4971 85.005C31.8271 84.885 32.0121 84.7799 32.0521 84.6899C32.5421 83.5999 32.7871 82.9849 32.7871 82.8449C32.7871 82.8049 32.7571 82.775 32.6971 82.755C32.6071 82.725 32.5571 82.7049 32.5471 82.6949C32.4171 82.6049 32.4221 82.535 32.5621 82.4849C32.8321 82.3849 33.1521 82.3349 33.5221 82.3349C33.7721 82.3349 34.0871 82.36 34.4671 82.41C34.8571 82.4599 35.1771 82.4849 35.4271 82.4849C35.6971 82.4849 36.0421 82.4349 36.4621 82.3349C36.5221 82.3249 36.5621 82.3349 36.5821 82.3649C36.6021 82.3949 36.6021 82.4349 36.5821 82.4849Z" fill="white"/>
<path d="M45.3691 81.945L44.0491 84.8849C44.0291 84.9349 43.9991 84.96 43.9591 84.96H42.8941C42.5241 85.53 42.3391 86.07 42.3391 86.58C42.3391 86.69 42.3891 86.79 42.4891 86.88C42.5891 86.97 42.6991 87.0149 42.8191 87.0149C43.1591 87.0149 43.4741 86.95 43.7641 86.82C43.8241 86.79 43.8691 86.79 43.8991 86.82C43.9291 86.85 43.9341 86.895 43.9141 86.955L42.7441 89.805L42.6841 89.865C41.7741 90.235 40.9691 90.42 40.2691 90.42C38.9791 90.42 38.2741 89.975 38.1541 89.085C37.6541 88.795 37.1841 88.675 36.7441 88.725C36.6741 88.735 36.6291 88.715 36.6091 88.665C36.5891 88.615 36.6091 88.57 36.6691 88.53C36.8191 88.43 37.1491 88.295 37.6591 88.125C38.0091 88.005 38.1841 87.855 38.1841 87.675C38.1841 87.435 38.0391 87.275 37.7491 87.195C37.5991 87.155 37.3191 87.135 36.9091 87.135C36.8091 87.135 36.6741 87.145 36.5041 87.165C36.3441 87.175 36.2091 87.18 36.0991 87.18C36.0291 87.18 35.8141 87.095 35.4541 86.925C35.3941 86.885 35.3741 86.835 35.3941 86.775C35.4141 86.7249 35.4591 86.705 35.5291 86.715C35.7191 86.755 35.8491 86.775 35.9191 86.775C36.2691 86.775 36.7091 86.63 37.2391 86.34C37.7691 86.04 38.2441 85.91 38.6641 85.95L39.0091 85.05H38.0191C37.9191 85.05 37.8841 84.9999 37.9141 84.9L38.3041 83.58C37.7841 83.36 37.1441 83.25 36.3841 83.25C36.2441 83.25 36.1041 83.265 35.9641 83.295C35.8941 83.305 35.8491 83.285 35.8291 83.235C35.8091 83.175 35.8291 83.125 35.8891 83.085C36.1991 82.925 36.6591 82.8199 37.2691 82.7699C37.6991 82.7299 37.9141 82.6249 37.9141 82.455C37.9141 82.3749 37.7491 82.28 37.4191 82.17C37.0391 82.04 36.8041 81.9049 36.7141 81.7649C36.6741 81.7149 36.6691 81.6699 36.6991 81.6299C36.7191 81.5899 36.7591 81.5799 36.8191 81.6C36.9391 81.6399 37.0441 81.6599 37.1341 81.6599C37.2341 81.6599 37.3541 81.6549 37.4941 81.6449C37.6441 81.6249 37.7641 81.6149 37.8541 81.6149C38.0041 81.6149 38.1891 81.6699 38.4091 81.7799C38.6291 81.8799 38.8091 81.9299 38.9491 81.9299H40.1491L40.5991 80.8949C40.5091 80.8349 40.3841 80.8049 40.2241 80.8049C40.1841 80.8049 40.1091 80.8099 39.9991 80.8199C39.8891 80.8199 39.8091 80.8199 39.7591 80.8199C39.5491 80.8199 39.3741 80.7849 39.2341 80.7149C39.1841 80.6749 39.1641 80.6349 39.1741 80.5949C39.1741 80.5449 39.2091 80.5149 39.2791 80.5049C39.4291 80.4849 39.7041 80.3899 40.1041 80.2199C40.4241 80.0899 40.7241 80.0349 41.0041 80.0549L41.1541 79.665C41.1741 79.625 41.2091 79.6049 41.2591 79.6049L44.6191 79.6349C44.7291 79.6349 44.7641 79.6849 44.7241 79.7849L43.9291 81.75L45.2791 81.7949C45.3691 81.7949 45.3991 81.8449 45.3691 81.945Z" fill="white"/>
<path d="M55.7524 84.84C55.7524 86.34 55.1024 87.67 53.8024 88.83C52.5124 89.99 51.0624 90.57 49.4524 90.57C48.1724 90.57 47.1974 89.94 46.5274 88.68C46.5074 88.63 46.4074 88.6049 46.2274 88.6049C46.1174 88.6049 45.8874 88.675 45.5374 88.8149C45.1974 88.945 44.9224 89.01 44.7124 89.01C44.6224 89.01 44.5274 88.995 44.4274 88.965C44.2674 88.915 44.1624 88.885 44.1124 88.875C44.0624 88.865 44.0374 88.8299 44.0374 88.7699C44.0374 88.6599 44.0874 88.625 44.1874 88.665C44.2474 88.685 44.3224 88.695 44.4124 88.695C44.6424 88.695 44.8574 88.645 45.0574 88.545C45.2974 88.425 45.4174 88.27 45.4174 88.08C45.4174 87.95 45.3574 87.845 45.2374 87.765C45.1174 87.685 44.9824 87.6449 44.8324 87.6449C44.7024 87.6449 44.5024 87.665 44.2324 87.705C44.0124 87.735 43.8124 87.74 43.6324 87.72C43.5624 87.71 43.5324 87.6699 43.5424 87.5999C43.5424 87.5299 43.5824 87.5 43.6624 87.51C43.8324 87.53 44.1374 87.445 44.5774 87.255C45.0274 87.055 45.4374 86.955 45.8074 86.955C45.9774 86.955 46.1524 86.97 46.3324 87C46.3824 86.8 46.4674 86.575 46.5874 86.325C46.3574 86.085 45.9224 85.95 45.2824 85.92C44.6124 85.89 44.1674 85.775 43.9474 85.575C43.8974 85.525 43.8824 85.475 43.9024 85.425C43.9324 85.375 43.9824 85.365 44.0524 85.3949C44.3124 85.4949 44.4924 85.545 44.5924 85.545C44.8924 85.545 45.2574 85.43 45.6874 85.2C46.1174 84.96 46.4824 84.84 46.7824 84.84C46.9124 84.84 47.0924 84.8549 47.3224 84.8849C47.4724 84.6649 47.6924 84.4149 47.9824 84.1349C47.9024 84.0649 47.8224 84.03 47.7424 84.03C47.6224 84.03 47.4674 84.0549 47.2774 84.1049C47.0874 84.1549 46.9324 84.18 46.8124 84.18C46.7724 84.18 46.6074 84.16 46.3174 84.12C46.2474 84.11 46.2174 84.07 46.2274 84C46.2374 83.93 46.2774 83.9 46.3474 83.91C46.5574 83.95 46.8174 83.905 47.1274 83.775C47.4474 83.6449 47.6074 83.5299 47.6074 83.4299C47.6074 83.2999 47.4374 83.2299 47.0974 83.2199C46.8874 83.2299 46.6724 83.235 46.4524 83.235C46.2724 83.225 46.1024 83.1949 45.9424 83.1449C45.8724 83.1249 45.8474 83.085 45.8674 83.025C45.8874 82.955 45.9324 82.9249 46.0024 82.9349C46.1324 82.9449 46.2574 82.95 46.3774 82.95C46.8974 82.95 47.3974 82.855 47.8774 82.665C48.3574 82.475 48.6424 82.38 48.7324 82.38C48.8924 82.38 49.0724 82.4399 49.2724 82.5599C49.4724 82.6699 49.6374 82.74 49.7674 82.7699C50.7774 82.2799 51.7124 82.035 52.5724 82.035C53.4124 82.035 54.1524 82.3049 54.7924 82.8449C55.4324 83.3749 55.7524 84.04 55.7524 84.84ZM52.2424 85.0199C52.2424 84.8299 52.1524 84.735 51.9724 84.735C51.5224 84.735 51.0674 84.975 50.6074 85.455C50.1274 85.965 49.8874 86.495 49.8874 87.045C49.8874 87.215 49.9324 87.38 50.0224 87.54C50.1224 87.69 50.2474 87.765 50.3974 87.765C50.6874 87.765 50.9874 87.62 51.2974 87.33C51.5774 87.05 51.7174 86.815 51.7174 86.625C51.7174 86.505 51.6724 86.445 51.5824 86.445C51.4024 86.445 51.2824 86.46 51.2224 86.49C51.1724 86.51 51.1224 86.5199 51.0724 86.5199C50.9024 86.5199 50.8174 86.4349 50.8174 86.2649C50.8174 86.1749 50.8574 86.105 50.9374 86.055C51.2174 85.945 51.4924 85.84 51.7624 85.74C52.0824 85.6 52.2424 85.36 52.2424 85.0199Z" fill="white"/>
<path d="M76.2268 79.5449L74.3068 83.2649C74.2668 83.3449 74.2068 83.355 74.1268 83.295C73.6368 82.905 73.1268 82.7099 72.5968 82.7099C71.7668 82.7099 71.0268 82.9749 70.3768 83.5049C69.7068 84.0649 69.3718 84.725 69.3718 85.485C69.3718 85.955 69.5968 86.33 70.0468 86.61C70.4468 86.86 70.9268 86.985 71.4868 86.985C72.1668 86.985 72.7968 86.765 73.3768 86.325C73.4468 86.275 73.5018 86.265 73.5418 86.295C73.5918 86.335 73.6018 86.39 73.5718 86.46L72.2668 89.76C72.2668 89.8 72.2418 89.82 72.1918 89.82C71.3218 90.14 70.5068 90.2999 69.7468 90.2999C68.6768 90.2999 67.6968 90.1099 66.8068 89.7299C66.3068 89.5199 65.7068 89.17 65.0068 88.68C64.4668 88.3 64.0918 88.11 63.8818 88.11C63.5418 88.11 63.1168 88.23 62.6068 88.47C62.1068 88.7 61.6868 88.8149 61.3468 88.8149C61.0568 88.8149 60.6768 88.765 60.2068 88.665C59.7468 88.555 59.4118 88.5 59.2018 88.5C58.9418 88.5 58.6918 88.55 58.4518 88.65C58.3318 88.7 58.2718 88.665 58.2718 88.545C58.2718 88.505 58.2968 88.4699 58.3468 88.4399C58.5268 88.3299 58.8918 88.275 59.4418 88.275C59.5618 88.275 59.7018 88.275 59.8618 88.275C60.0218 88.2849 60.1518 88.29 60.2518 88.29C60.7418 88.29 61.1918 88.15 61.6018 87.87C62.0218 87.58 62.2318 87.27 62.2318 86.9399C62.2318 86.6299 62.0268 86.4749 61.6168 86.4749C61.5468 86.4749 61.3318 86.525 60.9718 86.625C60.6218 86.725 60.2718 86.775 59.9218 86.775C59.2418 86.775 58.5368 86.555 57.8068 86.115C57.0768 85.675 56.5568 85.455 56.2468 85.455C55.8968 85.455 55.5368 85.51 55.1668 85.62C55.0668 85.65 55.0168 85.615 55.0168 85.5149C55.0168 85.4649 55.0418 85.43 55.0918 85.41C55.7018 85.24 56.1218 85.155 56.3518 85.155C56.7618 85.155 57.2818 85.22 57.9118 85.35C58.5418 85.47 59.0518 85.53 59.4418 85.53C59.6518 85.53 59.8518 85.47 60.0418 85.35C60.2318 85.22 60.3268 85.055 60.3268 84.8549C60.3268 84.5549 60.0268 84.33 59.4268 84.18C58.9768 84.07 58.4268 84.0149 57.7768 84.0149C56.3368 84.0149 55.1418 83.8499 54.1918 83.5199C54.1218 83.4999 54.0968 83.455 54.1168 83.385C54.1368 83.315 54.1868 83.2899 54.2668 83.3099C54.6468 83.3999 54.9518 83.445 55.1818 83.445C55.7218 83.445 56.4068 83.35 57.2368 83.16C58.0668 82.96 58.7468 82.86 59.2768 82.86C59.9168 82.86 60.6568 83.03 61.4968 83.37C62.3468 83.71 63.0918 83.88 63.7318 83.88C64.0818 83.88 64.3918 83.8299 64.6618 83.7299C64.9818 83.6199 65.1418 83.47 65.1418 83.28C65.1418 83.0599 64.9568 82.95 64.5868 82.95C64.4468 82.95 64.2668 82.955 64.0468 82.965C63.8368 82.975 63.5968 82.9799 63.3268 82.9799C62.7868 82.9799 62.0218 82.7049 61.0318 82.1549C60.0418 81.5949 59.2068 81.3149 58.5268 81.3149C58.1468 81.3149 57.6618 81.4399 57.0718 81.6899C56.9718 81.7299 56.9218 81.6999 56.9218 81.6C56.9218 81.5599 56.9418 81.5299 56.9818 81.5099C57.9018 81.0699 58.7218 80.85 59.4418 80.85C59.8518 80.85 60.3668 80.9299 60.9868 81.0899C61.6168 81.2499 62.1318 81.33 62.5318 81.33C62.6718 81.33 62.8218 81.265 62.9818 81.1349C63.1418 81.0049 63.2218 80.8599 63.2218 80.6999C63.2218 80.2999 62.9518 79.9999 62.4118 79.7999C62.1518 79.6999 61.5718 79.5699 60.6718 79.4099C59.9018 79.2799 59.3718 79.1249 59.0818 78.9449C59.0418 78.9149 59.0218 78.8799 59.0218 78.8399C59.0218 78.7199 59.0818 78.6849 59.2018 78.7349C59.5918 78.9649 60.0368 79.0799 60.5368 79.0799C60.7968 79.0799 61.1268 79.0599 61.5268 79.0199C61.9368 78.9699 62.2668 78.9449 62.5168 78.9449C63.1668 78.9449 63.9118 79.1099 64.7518 79.4399C65.5918 79.7699 66.3418 79.935 67.0018 79.935C67.6718 79.935 68.5868 79.8249 69.7468 79.6049C70.9168 79.3749 71.8368 79.2599 72.5068 79.2599C72.8668 79.2599 73.3318 79.3099 73.9018 79.4099C74.4718 79.5099 74.9418 79.5599 75.3118 79.5599C75.5518 79.5599 75.8018 79.5049 76.0618 79.3949C76.1318 79.3649 76.1818 79.3699 76.2118 79.4099C76.2518 79.4399 76.2568 79.4849 76.2268 79.5449Z" fill="white"/>
<path d="M84.2947 83.7299C84.2947 84.28 84.0647 84.975 83.6047 85.8149C83.1547 86.645 82.9297 87.235 82.9297 87.585C82.9297 87.685 83.0397 87.7599 83.2597 87.8099C83.4597 87.8599 83.6397 87.81 83.7997 87.66C83.8397 87.61 83.8847 87.6 83.9347 87.63C83.9847 87.66 83.9947 87.705 83.9647 87.765C83.6347 88.565 83.4697 89.285 83.4697 89.925C83.4697 90.015 83.4247 90.05 83.3347 90.03C81.5247 89.97 80.2797 90.0299 79.5997 90.2099C79.5297 90.2299 79.4847 90.22 79.4647 90.18C79.4347 90.14 79.4397 90.095 79.4797 90.045C79.5597 89.935 79.6897 89.625 79.8697 89.115C79.2597 89.565 78.7847 89.87 78.4447 90.03C77.9547 90.27 77.4447 90.3899 76.9147 90.3899C76.2447 90.3899 75.6747 90.06 75.2047 89.4C74.9447 89.52 74.7297 89.58 74.5597 89.58C74.3797 89.58 74.1497 89.495 73.8697 89.325C73.5997 89.155 73.3547 89.08 73.1347 89.1C73.0647 89.11 73.0247 89.085 73.0147 89.025C73.0047 88.955 73.0347 88.91 73.1047 88.89C73.2247 88.84 73.3447 88.8149 73.4647 88.8149C73.5647 88.8149 73.7147 88.84 73.9147 88.89C74.1247 88.94 74.2997 88.965 74.4397 88.965C74.6297 88.965 74.8197 88.905 75.0097 88.785C75.1097 88.205 75.3347 87.675 75.6847 87.195C75.5047 87.215 75.1947 87.29 74.7547 87.42C74.3747 87.54 74.0847 87.5999 73.8847 87.5999C73.8047 87.5999 73.7297 87.595 73.6597 87.585C73.5897 87.565 73.5597 87.52 73.5697 87.45C73.5697 87.39 73.6047 87.36 73.6747 87.36C74.5047 87.36 74.9197 87.1349 74.9197 86.6849C74.9197 86.5049 74.8197 86.415 74.6197 86.415C74.5197 86.415 74.3347 86.445 74.0647 86.505C73.7947 86.565 73.5997 86.595 73.4797 86.595C73.4197 86.595 73.3497 86.585 73.2697 86.5649C73.1797 86.545 73.1147 86.535 73.0747 86.535C73.0047 86.525 72.9697 86.485 72.9697 86.415C72.9797 86.355 73.0247 86.325 73.1047 86.325C73.3947 86.345 73.7147 86.2699 74.0647 86.0999C74.4147 85.9199 74.7097 85.83 74.9497 85.83C75.1897 85.83 75.4847 85.9 75.8347 86.04C76.1947 86.18 76.4897 86.2549 76.7197 86.2649C77.8497 85.5449 79.1047 85.1849 80.4847 85.1849C80.5047 84.8149 80.2647 84.63 79.7647 84.63C78.8947 84.63 78.2197 84.7849 77.7397 85.0949C77.6897 85.1349 77.6447 85.1399 77.6047 85.11C77.5647 85.0799 77.5547 85.0349 77.5747 84.9749C77.5947 84.8149 77.6247 84.58 77.6647 84.2699C77.4647 84.3 77.2697 84.3149 77.0797 84.3149C76.8697 84.3149 76.4047 84.25 75.6847 84.12C75.6147 84.11 75.5847 84.07 75.5947 84C75.5947 83.94 75.6297 83.91 75.6997 83.91C76.6697 83.91 77.1547 83.7749 77.1547 83.5049C77.1547 83.2649 77.0047 83.11 76.7047 83.04C76.5347 83 76.2447 82.9799 75.8347 82.9799C75.6547 82.9799 75.4747 83.015 75.2947 83.085C75.2247 83.115 75.1797 83.0899 75.1597 83.0099C75.1297 82.9399 75.1497 82.895 75.2197 82.875C75.7197 82.715 76.1247 82.6349 76.4347 82.6349C76.6847 82.6349 76.9997 82.6649 77.3797 82.7249C77.7697 82.7749 78.0897 82.7999 78.3397 82.7999C78.6897 82.7999 79.3197 82.67 80.2297 82.41C81.1497 82.1399 81.8747 82.0049 82.4047 82.0049C82.8947 82.0049 83.3247 82.1549 83.6947 82.455C84.0947 82.785 84.2947 83.2099 84.2947 83.7299ZM80.0797 86.4749C79.5797 86.6149 79.1347 86.805 78.7447 87.045C78.2747 87.345 78.0397 87.65 78.0397 87.96C78.0397 88.2 78.2097 88.32 78.5497 88.32C78.9297 88.32 79.2697 88.22 79.5697 88.02L80.0797 86.4749Z" fill="white"/>
<path d="M94.9634 82.2599C94.7234 82.4799 94.4234 83.015 94.0634 83.865C93.6634 84.8049 93.3434 85.4299 93.1034 85.74C93.0334 85.83 92.9684 85.815 92.9084 85.695C92.8584 85.5649 92.7734 85.5 92.6534 85.5C92.3534 85.5 91.9784 85.625 91.5284 85.875C91.1984 86.065 90.9284 86.25 90.7184 86.43C90.5184 86.92 90.2884 87.555 90.0284 88.335C89.7784 89.115 89.6534 89.5799 89.6534 89.7299C89.6534 89.8199 89.6984 89.9449 89.7884 90.1049C89.8084 90.1549 89.8084 90.195 89.7884 90.225C89.7584 90.255 89.7134 90.2649 89.6534 90.2549C88.8434 90.1549 88.2184 90.1049 87.7784 90.1049C86.3684 90.1049 85.6634 90.1049 85.6634 90.1049C85.6034 90.1049 85.5634 90.0899 85.5434 90.0599C85.5134 90.0299 85.5134 89.9899 85.5434 89.9399L86.1884 88.695C86.0884 88.565 85.9984 88.5 85.9184 88.5C85.8584 88.5 85.7784 88.51 85.6784 88.53C85.5784 88.55 85.4984 88.56 85.4384 88.56C85.2484 88.56 85.0084 88.52 84.7184 88.4399C84.4284 88.3499 84.1984 88.305 84.0284 88.305C83.9384 88.305 83.7734 88.355 83.5334 88.455C83.5134 88.465 83.4934 88.47 83.4734 88.47C83.4234 88.47 83.3884 88.4449 83.3684 88.3949C83.3584 88.3549 83.3734 88.3149 83.4134 88.275C83.6034 88.0749 83.8584 87.955 84.1784 87.915C84.3084 87.895 84.6334 87.885 85.1534 87.885C85.3234 87.885 85.5534 87.84 85.8434 87.75C86.1334 87.66 86.3984 87.6249 86.6384 87.6449L87.1184 86.385H86.9534C86.8234 86.385 86.6584 86.4149 86.4584 86.4749C86.2584 86.5249 86.0934 86.55 85.9634 86.55C85.6834 86.56 85.4034 86.53 85.1234 86.46C85.0534 86.44 85.0184 86.405 85.0184 86.3549C85.0184 86.2949 85.0534 86.26 85.1234 86.25C85.2734 86.23 85.4234 86.21 85.5734 86.1899C85.7234 86.1699 85.8584 86.115 85.9784 86.025C86.4584 85.675 86.9834 85.425 87.5534 85.275L87.7484 84.705C87.4184 84.385 87.0634 84.2249 86.6834 84.2249C86.5834 84.2249 86.4534 84.24 86.2934 84.2699C86.1334 84.3 86.0034 84.3149 85.9034 84.3149C85.7234 84.3149 85.4834 84.2849 85.1834 84.2249C84.8934 84.1649 84.6584 84.1349 84.4784 84.1349C84.3784 84.1349 84.2284 84.1649 84.0284 84.2249C83.9584 84.2449 83.9084 84.22 83.8784 84.15C83.8584 84.08 83.8834 84.0349 83.9534 84.0149C84.1534 83.9449 84.3284 83.91 84.4784 83.91C84.5984 83.91 84.7534 83.93 84.9434 83.97C85.1334 84 85.2834 84.0149 85.3934 84.0149C85.9034 84.0149 86.1584 83.855 86.1584 83.535C86.1584 83.315 86.0034 83.205 85.6934 83.205C85.6334 83.205 85.5534 83.215 85.4534 83.235C85.3534 83.245 85.2734 83.25 85.2134 83.25C84.9934 83.25 84.7384 83.205 84.4484 83.115C84.3784 83.095 84.3534 83.0499 84.3734 82.9799C84.4034 82.9099 84.4534 82.885 84.5234 82.905C84.7234 82.965 84.8884 82.995 85.0184 82.995C85.2184 82.995 85.4684 82.955 85.7684 82.875C86.0684 82.795 86.3134 82.755 86.5034 82.755C86.7134 82.755 86.9534 82.845 87.2234 83.025C87.5134 83.235 87.7984 83.3599 88.0784 83.4L88.3634 82.6049C88.3834 82.535 88.3634 82.435 88.3034 82.305C88.2834 82.255 88.2834 82.2149 88.3034 82.1849C88.3234 82.1649 88.3634 82.1549 88.4234 82.1549C89.8934 82.1849 91.0734 82.1899 91.9634 82.17C92.0134 82.17 92.0484 82.18 92.0684 82.1999C92.0784 82.22 92.0784 82.255 92.0684 82.305L91.7984 83.16C93.0984 82.38 94.1334 82.0199 94.9034 82.08C94.9634 82.08 94.9984 82.1 95.0084 82.1399C95.0184 82.1799 95.0034 82.2199 94.9634 82.2599Z" fill="white"/>
<path d="M103.681 84.9C103.681 85.3499 103.616 85.9749 103.486 86.775C103.466 86.845 103.431 86.88 103.381 86.88H98.5812C98.5712 87.22 98.7062 87.48 98.9862 87.66C99.2262 87.81 99.5212 87.885 99.8712 87.885C100.781 87.885 101.516 87.67 102.076 87.24C102.136 87.19 102.186 87.185 102.226 87.225C102.266 87.265 102.271 87.3199 102.241 87.3899C102.101 87.6799 101.966 88.3899 101.836 89.5199C101.836 89.5599 101.821 89.59 101.791 89.61C101.041 90.19 100.071 90.4799 98.8812 90.4799C96.9612 90.4799 95.8062 89.88 95.4162 88.68C94.7262 88.76 94.1612 88.725 93.7212 88.575C93.6512 88.555 93.6162 88.515 93.6162 88.455C93.6162 88.405 93.6512 88.375 93.7212 88.365C94.0212 88.305 94.2912 88.195 94.5312 88.035C94.8312 87.825 94.9812 87.58 94.9812 87.3C94.9812 87.01 94.8212 86.8049 94.5012 86.6849C94.3612 86.6349 94.0212 86.5799 93.4812 86.5199C93.0212 86.4599 92.7012 86.37 92.5212 86.25C92.4612 86.21 92.4412 86.165 92.4612 86.115C92.4812 86.065 92.5262 86.045 92.5962 86.055C92.7362 86.085 92.8662 86.0999 92.9862 86.0999C93.1862 86.0999 93.4412 86.04 93.7512 85.92C94.0712 85.79 94.3362 85.7249 94.5462 85.7249C94.7262 85.7249 94.9662 85.77 95.2662 85.86C95.3862 85.55 95.6162 85.135 95.9562 84.615C95.3062 84.615 94.8362 84.5549 94.5462 84.4349C94.4962 84.4149 94.4712 84.38 94.4712 84.33C94.4712 84.21 94.5262 84.1749 94.6362 84.2249C94.6962 84.2549 94.7762 84.2699 94.8762 84.2699C95.0462 84.2699 95.2012 84.2299 95.3412 84.15C95.4912 84.0599 95.5562 83.9449 95.5362 83.8049C95.5062 83.5449 95.2712 83.415 94.8312 83.415C94.7512 83.415 94.6412 83.425 94.5012 83.445C94.3612 83.4549 94.2462 83.46 94.1562 83.46C94.0262 83.46 93.7812 83.435 93.4212 83.385C93.3512 83.375 93.3212 83.3349 93.3312 83.2649C93.3412 83.1949 93.3812 83.165 93.4512 83.175C93.7212 83.215 94.0612 83.165 94.4712 83.025C94.8912 82.875 95.2212 82.7999 95.4612 82.7999C95.6312 82.7999 95.8612 82.875 96.1512 83.025C96.4412 83.165 96.7162 83.2499 96.9762 83.28C98.5262 82.4299 99.7712 82.0049 100.711 82.0049C101.541 82.0049 102.231 82.255 102.781 82.755C103.381 83.295 103.681 84.0099 103.681 84.9ZM101.116 84.825C101.116 84.645 101.066 84.49 100.966 84.36C100.866 84.22 100.736 84.15 100.576 84.15C100.116 84.15 99.6262 84.48 99.1062 85.14L101.011 85.17C101.081 85.03 101.116 84.915 101.116 84.825Z" fill="white"/>
<path d="M28.8273 102V100.054C28.5053 99.5547 28.202 99.0623 27.9173 98.577C27.6326 98.0917 27.3643 97.6157 27.1123 97.149H27.9103C28.0876 97.5317 28.286 97.9213 28.5053 98.318C28.7246 98.71 28.951 99.088 29.1843 99.452C29.413 99.088 29.637 98.71 29.8563 98.318C30.0756 97.9213 30.2763 97.5317 30.4583 97.149H31.2143C30.9623 97.6157 30.694 98.0917 30.4093 98.577C30.1246 99.0577 29.8236 99.5453 29.5063 100.04V102H28.8273ZM34.6851 100.18C34.6851 100.469 34.6431 100.731 34.5591 100.964C34.4751 101.197 34.3561 101.398 34.2021 101.566C34.0528 101.734 33.8731 101.865 33.6631 101.958C33.4531 102.047 33.2244 102.091 32.9771 102.091C32.7298 102.091 32.5011 102.047 32.2911 101.958C32.0811 101.865 31.8991 101.734 31.7451 101.566C31.5958 101.398 31.4791 101.197 31.3951 100.964C31.3111 100.731 31.2691 100.469 31.2691 100.18C31.2691 99.8953 31.3111 99.6363 31.3951 99.403C31.4791 99.165 31.5958 98.962 31.7451 98.794C31.8991 98.626 32.0811 98.4977 32.2911 98.409C32.5011 98.3157 32.7298 98.269 32.9771 98.269C33.2244 98.269 33.4531 98.3157 33.6631 98.409C33.8731 98.4977 34.0528 98.626 34.2021 98.794C34.3561 98.962 34.4751 99.165 34.5591 99.403C34.6431 99.6363 34.6851 99.8953 34.6851 100.18ZM34.0061 100.18C34.0061 99.7693 33.9128 99.445 33.7261 99.207C33.5441 98.9643 33.2944 98.843 32.9771 98.843C32.6598 98.843 32.4078 98.9643 32.2211 99.207C32.0391 99.445 31.9481 99.7693 31.9481 100.18C31.9481 100.591 32.0391 100.917 32.2211 101.16C32.4078 101.398 32.6598 101.517 32.9771 101.517C33.2944 101.517 33.5441 101.398 33.7261 101.16C33.9128 100.917 34.0061 100.591 34.0061 100.18ZM38.499 101.895C38.3497 101.932 38.1513 101.972 37.904 102.014C37.6613 102.056 37.379 102.077 37.057 102.077C36.777 102.077 36.5413 102.037 36.35 101.958C36.1587 101.874 36.0047 101.757 35.888 101.608C35.7713 101.459 35.6873 101.284 35.636 101.083C35.5847 100.878 35.559 100.651 35.559 100.404V98.36H36.21V100.264C36.21 100.707 36.28 101.025 36.42 101.216C36.56 101.407 36.7957 101.503 37.127 101.503C37.197 101.503 37.2693 101.501 37.344 101.496C37.4187 101.491 37.4887 101.487 37.554 101.482C37.6193 101.473 37.6777 101.466 37.729 101.461C37.785 101.452 37.8247 101.442 37.848 101.433V98.36H38.499V101.895ZM40.9645 98.283C41.0205 98.283 41.0835 98.2877 41.1535 98.297C41.2282 98.3017 41.3005 98.311 41.3705 98.325C41.4405 98.3343 41.5035 98.346 41.5595 98.36C41.6202 98.3693 41.6645 98.3787 41.6925 98.388L41.5805 98.955C41.5292 98.9363 41.4429 98.9153 41.3215 98.892C41.2049 98.864 41.0532 98.85 40.8665 98.85C40.7452 98.85 40.6239 98.864 40.5025 98.892C40.3859 98.9153 40.3089 98.9317 40.2715 98.941V102H39.6205V98.514C39.7745 98.458 39.9659 98.4067 40.1945 98.36C40.4232 98.3087 40.6799 98.283 40.9645 98.283ZM46.0689 102.105C45.7282 102.105 45.4179 102.049 45.1379 101.937C44.8579 101.825 44.6175 101.662 44.4169 101.447C44.2162 101.232 44.0599 100.969 43.9479 100.656C43.8405 100.339 43.7869 99.977 43.7869 99.571C43.7869 99.165 43.8475 98.8057 43.9689 98.493C44.0949 98.1757 44.2629 97.9097 44.4729 97.695C44.6829 97.4803 44.9279 97.317 45.2079 97.205C45.4879 97.093 45.7865 97.037 46.1039 97.037C46.3045 97.037 46.4842 97.051 46.6429 97.079C46.8062 97.107 46.9462 97.1397 47.0629 97.177C47.1842 97.2143 47.2822 97.2517 47.3569 97.289C47.4315 97.3263 47.4829 97.3543 47.5109 97.373L47.3149 97.933C47.2729 97.905 47.2122 97.8747 47.1329 97.842C47.0535 97.8093 46.9625 97.7767 46.8599 97.744C46.7619 97.7113 46.6522 97.6857 46.5309 97.667C46.4142 97.6437 46.2952 97.632 46.1739 97.632C45.9172 97.632 45.6862 97.6763 45.4809 97.765C45.2755 97.8537 45.1005 97.982 44.9559 98.15C44.8112 98.318 44.6992 98.5233 44.6199 98.766C44.5452 99.004 44.5079 99.2723 44.5079 99.571C44.5079 99.8603 44.5405 100.124 44.6059 100.362C44.6759 100.6 44.7785 100.805 44.9139 100.978C45.0492 101.146 45.2172 101.277 45.4179 101.37C45.6232 101.463 45.8612 101.51 46.1319 101.51C46.4445 101.51 46.7035 101.477 46.9089 101.412C47.1142 101.347 47.2682 101.288 47.3709 101.237L47.5459 101.797C47.5132 101.82 47.4549 101.851 47.3709 101.888C47.2869 101.921 47.1819 101.953 47.0559 101.986C46.9299 102.019 46.7829 102.047 46.6149 102.07C46.4469 102.093 46.2649 102.105 46.0689 102.105ZM49.5137 101.531C49.6677 101.531 49.803 101.529 49.9197 101.524C50.041 101.515 50.1413 101.501 50.2207 101.482V100.397C50.174 100.374 50.097 100.355 49.9897 100.341C49.887 100.322 49.761 100.313 49.6117 100.313C49.5137 100.313 49.4087 100.32 49.2967 100.334C49.1893 100.348 49.089 100.378 48.9957 100.425C48.907 100.467 48.8323 100.528 48.7717 100.607C48.711 100.682 48.6807 100.782 48.6807 100.908C48.6807 101.141 48.7553 101.305 48.9047 101.398C49.054 101.487 49.257 101.531 49.5137 101.531ZM49.4577 98.269C49.719 98.269 49.9383 98.304 50.1157 98.374C50.2977 98.4393 50.4423 98.535 50.5497 98.661C50.6617 98.7823 50.741 98.9293 50.7877 99.102C50.8343 99.27 50.8577 99.4567 50.8577 99.662V101.937C50.8017 101.946 50.7223 101.96 50.6197 101.979C50.5217 101.993 50.4097 102.007 50.2837 102.021C50.1577 102.035 50.02 102.047 49.8707 102.056C49.726 102.07 49.5813 102.077 49.4367 102.077C49.2313 102.077 49.0423 102.056 48.8697 102.014C48.697 101.972 48.5477 101.907 48.4217 101.818C48.2957 101.725 48.1977 101.603 48.1277 101.454C48.0577 101.305 48.0227 101.125 48.0227 100.915C48.0227 100.714 48.0623 100.542 48.1417 100.397C48.2257 100.252 48.3377 100.136 48.4777 100.047C48.6177 99.9583 48.781 99.893 48.9677 99.851C49.1543 99.809 49.3503 99.788 49.5557 99.788C49.621 99.788 49.6887 99.7927 49.7587 99.802C49.8287 99.8067 49.894 99.816 49.9547 99.83C50.02 99.8393 50.076 99.8487 50.1227 99.858C50.1693 99.8673 50.202 99.8743 50.2207 99.879V99.697C50.2207 99.5897 50.209 99.4847 50.1857 99.382C50.1623 99.2747 50.1203 99.1813 50.0597 99.102C49.999 99.018 49.915 98.9527 49.8077 98.906C49.705 98.8547 49.5697 98.829 49.4017 98.829C49.187 98.829 48.998 98.8453 48.8347 98.878C48.676 98.906 48.557 98.9363 48.4777 98.969L48.4007 98.43C48.4847 98.3927 48.6247 98.3577 48.8207 98.325C49.0167 98.2877 49.229 98.269 49.4577 98.269ZM53.2829 98.283C53.3389 98.283 53.4019 98.2877 53.4719 98.297C53.5466 98.3017 53.6189 98.311 53.6889 98.325C53.7589 98.3343 53.8219 98.346 53.8779 98.36C53.9386 98.3693 53.9829 98.3787 54.0109 98.388L53.8989 98.955C53.8476 98.9363 53.7612 98.9153 53.6399 98.892C53.5232 98.864 53.3716 98.85 53.1849 98.85C53.0636 98.85 52.9422 98.864 52.8209 98.892C52.7042 98.9153 52.6272 98.9317 52.5899 98.941V102H51.9389V98.514C52.0929 98.458 52.2842 98.4067 52.5129 98.36C52.7416 98.3087 52.9982 98.283 53.2829 98.283ZM57.4282 101.517C58.1376 101.517 58.4922 101.274 58.4922 100.789C58.4922 100.64 58.4596 100.514 58.3942 100.411C58.3336 100.304 58.2496 100.213 58.1422 100.138C58.0349 100.059 57.9112 99.991 57.7712 99.935C57.6359 99.879 57.4912 99.823 57.3372 99.767C57.1599 99.7063 56.9919 99.6387 56.8332 99.564C56.6746 99.4847 56.5369 99.3937 56.4202 99.291C56.3036 99.1837 56.2102 99.0577 56.1402 98.913C56.0749 98.7683 56.0422 98.5933 56.0422 98.388C56.0422 97.9633 56.1869 97.632 56.4762 97.394C56.7656 97.156 57.1646 97.037 57.6732 97.037C57.9672 97.037 58.2332 97.0697 58.4712 97.135C58.7139 97.1957 58.8912 97.2633 59.0032 97.338L58.7862 97.891C58.6882 97.8303 58.5412 97.772 58.3452 97.716C58.1539 97.6553 57.9299 97.625 57.6732 97.625C57.5426 97.625 57.4212 97.639 57.3092 97.667C57.1972 97.695 57.0992 97.737 57.0152 97.793C56.9312 97.849 56.8636 97.9213 56.8122 98.01C56.7656 98.094 56.7422 98.1943 56.7422 98.311C56.7422 98.4417 56.7679 98.5513 56.8192 98.64C56.8706 98.7287 56.9429 98.808 57.0362 98.878C57.1296 98.9433 57.2369 99.004 57.3582 99.06C57.4842 99.116 57.6219 99.172 57.7712 99.228C57.9812 99.312 58.1726 99.396 58.3452 99.48C58.5226 99.564 58.6742 99.6643 58.8002 99.781C58.9309 99.8977 59.0312 100.038 59.1012 100.201C59.1712 100.36 59.2062 100.553 59.2062 100.782C59.2062 101.207 59.0499 101.533 58.7372 101.762C58.4292 101.991 57.9929 102.105 57.4282 102.105C57.2369 102.105 57.0596 102.091 56.8962 102.063C56.7376 102.04 56.5952 102.012 56.4692 101.979C56.3432 101.942 56.2336 101.904 56.1402 101.867C56.0516 101.825 55.9816 101.79 55.9302 101.762L56.1332 101.202C56.2406 101.263 56.4039 101.33 56.6232 101.405C56.8426 101.48 57.1109 101.517 57.4282 101.517ZM63.1978 100.18C63.1978 100.469 63.1558 100.731 63.0718 100.964C62.9878 101.197 62.8688 101.398 62.7148 101.566C62.5655 101.734 62.3858 101.865 62.1758 101.958C61.9658 102.047 61.7371 102.091 61.4898 102.091C61.2425 102.091 61.0138 102.047 60.8038 101.958C60.5938 101.865 60.4118 101.734 60.2578 101.566C60.1085 101.398 59.9918 101.197 59.9078 100.964C59.8238 100.731 59.7818 100.469 59.7818 100.18C59.7818 99.8953 59.8238 99.6363 59.9078 99.403C59.9918 99.165 60.1085 98.962 60.2578 98.794C60.4118 98.626 60.5938 98.4977 60.8038 98.409C61.0138 98.3157 61.2425 98.269 61.4898 98.269C61.7371 98.269 61.9658 98.3157 62.1758 98.409C62.3858 98.4977 62.5655 98.626 62.7148 98.794C62.8688 98.962 62.9878 99.165 63.0718 99.403C63.1558 99.6363 63.1978 99.8953 63.1978 100.18ZM62.5188 100.18C62.5188 99.7693 62.4255 99.445 62.2388 99.207C62.0568 98.9643 61.8071 98.843 61.4898 98.843C61.1725 98.843 60.9205 98.9643 60.7338 99.207C60.5518 99.445 60.4608 99.7693 60.4608 100.18C60.4608 100.591 60.5518 100.917 60.7338 101.16C60.9205 101.398 61.1725 101.517 61.4898 101.517C61.8071 101.517 62.0568 101.398 62.2388 101.16C62.4255 100.917 62.5188 100.591 62.5188 100.18ZM65.2057 102.07C64.8044 102.061 64.5197 101.974 64.3517 101.811C64.1837 101.648 64.0997 101.393 64.0997 101.048V96.68L64.7507 96.568V100.943C64.7507 101.05 64.76 101.139 64.7787 101.209C64.7974 101.279 64.8277 101.335 64.8697 101.377C64.9117 101.419 64.9677 101.452 65.0377 101.475C65.1077 101.494 65.194 101.51 65.2967 101.524L65.2057 102.07ZM68.9258 101.895C68.7764 101.932 68.5781 101.972 68.3308 102.014C68.0881 102.056 67.8058 102.077 67.4838 102.077C67.2038 102.077 66.9681 102.037 66.7768 101.958C66.5854 101.874 66.4314 101.757 66.3148 101.608C66.1981 101.459 66.1141 101.284 66.0628 101.083C66.0114 100.878 65.9858 100.651 65.9858 100.404V98.36H66.6368V100.264C66.6368 100.707 66.7068 101.025 66.8468 101.216C66.9868 101.407 67.2224 101.503 67.5538 101.503C67.6238 101.503 67.6961 101.501 67.7708 101.496C67.8454 101.491 67.9154 101.487 67.9808 101.482C68.0461 101.473 68.1044 101.466 68.1558 101.461C68.2118 101.452 68.2514 101.442 68.2748 101.433V98.36H68.9258V101.895ZM70.6563 98.36H72.0353V98.906H70.6563V100.586C70.6563 100.768 70.6703 100.92 70.6983 101.041C70.7263 101.158 70.7683 101.251 70.8243 101.321C70.8803 101.386 70.9503 101.433 71.0343 101.461C71.1183 101.489 71.2163 101.503 71.3283 101.503C71.5243 101.503 71.6806 101.482 71.7973 101.44C71.9186 101.393 72.0026 101.361 72.0493 101.342L72.1753 101.881C72.11 101.914 71.9956 101.953 71.8323 102C71.669 102.051 71.4823 102.077 71.2723 102.077C71.025 102.077 70.8196 102.047 70.6563 101.986C70.4976 101.921 70.3693 101.825 70.2713 101.699C70.1733 101.573 70.1033 101.419 70.0613 101.237C70.024 101.05 70.0053 100.836 70.0053 100.593V97.345L70.6563 97.233V98.36ZM73.5147 102H72.8637V98.36H73.5147V102ZM73.1857 97.702C73.069 97.702 72.9687 97.6647 72.8847 97.59C72.8054 97.5107 72.7657 97.4057 72.7657 97.275C72.7657 97.1443 72.8054 97.0417 72.8847 96.967C72.9687 96.8877 73.069 96.848 73.1857 96.848C73.3024 96.848 73.4004 96.8877 73.4797 96.967C73.5637 97.0417 73.6057 97.1443 73.6057 97.275C73.6057 97.4057 73.5637 97.5107 73.4797 97.59C73.4004 97.6647 73.3024 97.702 73.1857 97.702ZM77.8472 100.18C77.8472 100.469 77.8052 100.731 77.7212 100.964C77.6372 101.197 77.5182 101.398 77.3642 101.566C77.2149 101.734 77.0352 101.865 76.8252 101.958C76.6152 102.047 76.3866 102.091 76.1392 102.091C75.8919 102.091 75.6632 102.047 75.4532 101.958C75.2432 101.865 75.0612 101.734 74.9072 101.566C74.7579 101.398 74.6412 101.197 74.5572 100.964C74.4732 100.731 74.4312 100.469 74.4312 100.18C74.4312 99.8953 74.4732 99.6363 74.5572 99.403C74.6412 99.165 74.7579 98.962 74.9072 98.794C75.0612 98.626 75.2432 98.4977 75.4532 98.409C75.6632 98.3157 75.8919 98.269 76.1392 98.269C76.3866 98.269 76.6152 98.3157 76.8252 98.409C77.0352 98.4977 77.2149 98.626 77.3642 98.794C77.5182 98.962 77.6372 99.165 77.7212 99.403C77.8052 99.6363 77.8472 99.8953 77.8472 100.18ZM77.1682 100.18C77.1682 99.7693 77.0749 99.445 76.8882 99.207C76.7062 98.9643 76.4566 98.843 76.1392 98.843C75.8219 98.843 75.5699 98.9643 75.3832 99.207C75.2012 99.445 75.1102 99.7693 75.1102 100.18C75.1102 100.591 75.2012 100.917 75.3832 101.16C75.5699 101.398 75.8219 101.517 76.1392 101.517C76.4566 101.517 76.7062 101.398 76.8882 101.16C77.0749 100.917 77.1682 100.591 77.1682 100.18ZM78.7631 98.465C78.9125 98.4277 79.1108 98.388 79.3581 98.346C79.6055 98.304 79.8901 98.283 80.2121 98.283C80.5015 98.283 80.7418 98.325 80.9331 98.409C81.1245 98.4883 81.2761 98.6027 81.3881 98.752C81.5048 98.8967 81.5865 99.0717 81.6331 99.277C81.6798 99.4823 81.7031 99.7087 81.7031 99.956V102H81.0521V100.096C81.0521 99.872 81.0358 99.6807 81.0031 99.522C80.9751 99.3633 80.9261 99.235 80.8561 99.137C80.7861 99.039 80.6928 98.969 80.5761 98.927C80.4595 98.8803 80.3148 98.857 80.1421 98.857C80.0721 98.857 79.9998 98.8593 79.9251 98.864C79.8505 98.8687 79.7781 98.8757 79.7081 98.885C79.6428 98.8897 79.5821 98.8967 79.5261 98.906C79.4748 98.9153 79.4375 98.9223 79.4141 98.927V102H78.7631V98.465ZM83.6297 101.531C83.8957 101.531 84.0917 101.496 84.2177 101.426C84.3483 101.356 84.4137 101.244 84.4137 101.09C84.4137 100.931 84.3507 100.805 84.2247 100.712C84.0987 100.619 83.891 100.514 83.6017 100.397C83.4617 100.341 83.3263 100.285 83.1957 100.229C83.0697 100.168 82.96 100.098 82.8667 100.019C82.7733 99.9397 82.6987 99.844 82.6427 99.732C82.5867 99.62 82.5587 99.4823 82.5587 99.319C82.5587 98.997 82.6777 98.7427 82.9157 98.556C83.1537 98.3647 83.478 98.269 83.8887 98.269C83.9913 98.269 84.094 98.276 84.1967 98.29C84.2993 98.2993 84.395 98.3133 84.4837 98.332C84.5723 98.346 84.6493 98.3623 84.7147 98.381C84.7847 98.3997 84.8383 98.416 84.8757 98.43L84.7567 98.99C84.6867 98.9527 84.577 98.9153 84.4277 98.878C84.2783 98.836 84.0987 98.815 83.8887 98.815C83.7067 98.815 83.548 98.8523 83.4127 98.927C83.2773 98.997 83.2097 99.109 83.2097 99.263C83.2097 99.3423 83.2237 99.4123 83.2517 99.473C83.2843 99.5337 83.331 99.5897 83.3917 99.641C83.457 99.6877 83.5363 99.732 83.6297 99.774C83.723 99.816 83.835 99.8603 83.9657 99.907C84.1383 99.9723 84.2923 100.038 84.4277 100.103C84.563 100.164 84.6773 100.236 84.7707 100.32C84.8687 100.404 84.9433 100.507 84.9947 100.628C85.046 100.745 85.0717 100.889 85.0717 101.062C85.0717 101.398 84.9457 101.652 84.6937 101.825C84.4463 101.998 84.0917 102.084 83.6297 102.084C83.3077 102.084 83.0557 102.056 82.8737 102C82.6917 101.949 82.568 101.909 82.5027 101.881L82.6217 101.321C82.6963 101.349 82.8153 101.391 82.9787 101.447C83.142 101.503 83.359 101.531 83.6297 101.531ZM86.5927 101.202C86.5973 101.239 86.5997 101.277 86.5997 101.314C86.5997 101.347 86.5997 101.382 86.5997 101.419C86.5997 101.713 86.5553 102.002 86.4667 102.287C86.3827 102.576 86.266 102.852 86.1167 103.113L85.6127 102.952C85.7293 102.714 85.8063 102.471 85.8437 102.224C85.881 101.981 85.8997 101.753 85.8997 101.538C85.8997 101.477 85.8973 101.419 85.8927 101.363C85.8927 101.307 85.8903 101.253 85.8857 101.202H86.5927ZM89.8585 98.36H91.2375V98.906H89.8585V100.586C89.8585 100.768 89.8725 100.92 89.9005 101.041C89.9285 101.158 89.9705 101.251 90.0265 101.321C90.0825 101.386 90.1525 101.433 90.2365 101.461C90.3205 101.489 90.4185 101.503 90.5305 101.503C90.7265 101.503 90.8828 101.482 90.9995 101.44C91.1208 101.393 91.2048 101.361 91.2515 101.342L91.3775 101.881C91.3121 101.914 91.1978 101.953 91.0345 102C90.8711 102.051 90.6845 102.077 90.4745 102.077C90.2271 102.077 90.0218 102.047 89.8585 101.986C89.6998 101.921 89.5715 101.825 89.4735 101.699C89.3755 101.573 89.3055 101.419 89.2635 101.237C89.2261 101.05 89.2075 100.836 89.2075 100.593V97.345L89.8585 97.233V98.36ZM95.1832 100.18C95.1832 100.469 95.1412 100.731 95.0572 100.964C94.9732 101.197 94.8542 101.398 94.7002 101.566C94.5508 101.734 94.3712 101.865 94.1612 101.958C93.9512 102.047 93.7225 102.091 93.4752 102.091C93.2278 102.091 92.9992 102.047 92.7892 101.958C92.5792 101.865 92.3972 101.734 92.2432 101.566C92.0938 101.398 91.9772 101.197 91.8932 100.964C91.8092 100.731 91.7672 100.469 91.7672 100.18C91.7672 99.8953 91.8092 99.6363 91.8932 99.403C91.9772 99.165 92.0938 98.962 92.2432 98.794C92.3972 98.626 92.5792 98.4977 92.7892 98.409C92.9992 98.3157 93.2278 98.269 93.4752 98.269C93.7225 98.269 93.9512 98.3157 94.1612 98.409C94.3712 98.4977 94.5508 98.626 94.7002 98.794C94.8542 98.962 94.9732 99.165 95.0572 99.403C95.1412 99.6363 95.1832 99.8953 95.1832 100.18ZM94.5042 100.18C94.5042 99.7693 94.4108 99.445 94.2242 99.207C94.0422 98.9643 93.7925 98.843 93.4752 98.843C93.1578 98.843 92.9058 98.9643 92.7192 99.207C92.5372 99.445 92.4462 99.7693 92.4462 100.18C92.4462 100.591 92.5372 100.917 92.7192 101.16C92.9058 101.398 93.1578 101.517 93.4752 101.517C93.7925 101.517 94.0422 101.398 94.2242 101.16C94.4108 100.917 94.5042 100.591 94.5042 100.18ZM99.0352 99.998C99.1752 100.105 99.3222 100.238 99.4762 100.397C99.6348 100.556 99.7888 100.728 99.9382 100.915C100.092 101.097 100.237 101.284 100.372 101.475C100.508 101.662 100.622 101.837 100.715 102H99.9522C99.8542 101.837 99.7398 101.671 99.6092 101.503C99.4832 101.33 99.3502 101.167 99.2102 101.013C99.0702 100.854 98.9278 100.71 98.7832 100.579C98.6385 100.448 98.5008 100.339 98.3702 100.25V102H97.7192V96.68L98.3702 96.568V99.886C98.4822 99.774 98.6058 99.6503 98.7412 99.515C98.8765 99.3797 99.0095 99.242 99.1402 99.102C99.2708 98.962 99.3945 98.829 99.5112 98.703C99.6278 98.5723 99.7282 98.458 99.8122 98.36H100.575C100.468 98.4767 100.351 98.605 100.225 98.745C100.099 98.885 99.9685 99.0273 99.8332 99.172C99.6978 99.312 99.5602 99.4543 99.4202 99.599C99.2848 99.739 99.1565 99.872 99.0352 99.998ZM100.989 100.187C100.989 99.865 101.036 99.585 101.129 99.347C101.222 99.1043 101.346 98.9037 101.5 98.745C101.654 98.5863 101.831 98.4673 102.032 98.388C102.233 98.3087 102.438 98.269 102.648 98.269C103.138 98.269 103.514 98.423 103.775 98.731C104.036 99.0343 104.167 99.4987 104.167 100.124C104.167 100.152 104.167 100.189 104.167 100.236C104.167 100.278 104.165 100.318 104.16 100.355H101.668C101.696 100.733 101.806 101.02 101.997 101.216C102.188 101.412 102.487 101.51 102.893 101.51C103.122 101.51 103.313 101.491 103.467 101.454C103.626 101.412 103.745 101.372 103.824 101.335L103.915 101.881C103.836 101.923 103.696 101.967 103.495 102.014C103.299 102.061 103.075 102.084 102.823 102.084C102.506 102.084 102.23 102.037 101.997 101.944C101.768 101.846 101.579 101.713 101.43 101.545C101.281 101.377 101.169 101.179 101.094 100.95C101.024 100.717 100.989 100.462 100.989 100.187ZM103.488 99.83C103.493 99.536 103.418 99.2957 103.264 99.109C103.115 98.9177 102.907 98.822 102.641 98.822C102.492 98.822 102.359 98.8523 102.242 98.913C102.13 98.969 102.034 99.0437 101.955 99.137C101.876 99.2303 101.813 99.3377 101.766 99.459C101.724 99.5803 101.696 99.704 101.682 99.83H103.488ZM104.899 100.187C104.899 99.865 104.946 99.585 105.039 99.347C105.132 99.1043 105.256 98.9037 105.41 98.745C105.564 98.5863 105.741 98.4673 105.942 98.388C106.143 98.3087 106.348 98.269 106.558 98.269C107.048 98.269 107.424 98.423 107.685 98.731C107.946 99.0343 108.077 99.4987 108.077 100.124C108.077 100.152 108.077 100.189 108.077 100.236C108.077 100.278 108.075 100.318 108.07 100.355H105.578C105.606 100.733 105.716 101.02 105.907 101.216C106.098 101.412 106.397 101.51 106.803 101.51C107.032 101.51 107.223 101.491 107.377 101.454C107.536 101.412 107.655 101.372 107.734 101.335L107.825 101.881C107.746 101.923 107.606 101.967 107.405 102.014C107.209 102.061 106.985 102.084 106.733 102.084C106.416 102.084 106.14 102.037 105.907 101.944C105.678 101.846 105.489 101.713 105.34 101.545C105.191 101.377 105.079 101.179 105.004 100.95C104.934 100.717 104.899 100.462 104.899 100.187ZM107.398 99.83C107.403 99.536 107.328 99.2957 107.174 99.109C107.025 98.9177 106.817 98.822 106.551 98.822C106.402 98.822 106.269 98.8523 106.152 98.913C106.04 98.969 105.944 99.0437 105.865 99.137C105.786 99.2303 105.723 99.3377 105.676 99.459C105.634 99.5803 105.606 99.704 105.592 99.83H107.398ZM111.539 100.187C111.539 99.7623 111.434 99.4357 111.224 99.207C111.014 98.9783 110.734 98.864 110.384 98.864C110.188 98.864 110.034 98.871 109.922 98.885C109.815 98.899 109.728 98.9153 109.663 98.934V101.23C109.742 101.295 109.857 101.358 110.006 101.419C110.155 101.48 110.319 101.51 110.496 101.51C110.683 101.51 110.841 101.477 110.972 101.412C111.107 101.342 111.217 101.249 111.301 101.132C111.385 101.011 111.446 100.871 111.483 100.712C111.52 100.549 111.539 100.374 111.539 100.187ZM112.218 100.187C112.218 100.462 112.181 100.717 112.106 100.95C112.036 101.183 111.931 101.384 111.791 101.552C111.651 101.72 111.478 101.851 111.273 101.944C111.072 102.037 110.841 102.084 110.58 102.084C110.37 102.084 110.183 102.056 110.02 102C109.861 101.944 109.742 101.89 109.663 101.839V103.295H109.012V98.472C109.166 98.4347 109.357 98.395 109.586 98.353C109.819 98.3063 110.088 98.283 110.391 98.283C110.671 98.283 110.923 98.3273 111.147 98.416C111.371 98.5047 111.562 98.6307 111.721 98.794C111.88 98.9573 112.001 99.158 112.085 99.396C112.174 99.6293 112.218 99.893 112.218 100.187ZM114.327 102.679C114.379 102.702 114.444 102.723 114.523 102.742C114.607 102.765 114.689 102.777 114.768 102.777C115.025 102.777 115.226 102.719 115.37 102.602C115.515 102.49 115.646 102.306 115.762 102.049C115.468 101.489 115.193 100.896 114.936 100.271C114.684 99.641 114.474 99.004 114.306 98.36H115.006C115.058 98.57 115.118 98.7963 115.188 99.039C115.263 99.2817 115.345 99.5313 115.433 99.788C115.522 100.045 115.618 100.301 115.72 100.558C115.823 100.815 115.93 101.062 116.042 101.3C116.22 100.81 116.374 100.325 116.504 99.844C116.635 99.3633 116.759 98.8687 116.875 98.36H117.547C117.379 99.046 117.193 99.7063 116.987 100.341C116.782 100.971 116.56 101.561 116.322 102.112C116.229 102.322 116.131 102.502 116.028 102.651C115.93 102.805 115.821 102.931 115.699 103.029C115.578 103.127 115.44 103.199 115.286 103.246C115.137 103.293 114.967 103.316 114.775 103.316C114.724 103.316 114.67 103.311 114.614 103.302C114.558 103.297 114.502 103.288 114.446 103.274C114.395 103.265 114.346 103.253 114.299 103.239C114.257 103.225 114.227 103.213 114.208 103.204L114.327 102.679ZM121.447 100.18C121.447 100.469 121.405 100.731 121.321 100.964C121.237 101.197 121.118 101.398 120.964 101.566C120.814 101.734 120.635 101.865 120.425 101.958C120.215 102.047 119.986 102.091 119.739 102.091C119.491 102.091 119.263 102.047 119.053 101.958C118.843 101.865 118.661 101.734 118.507 101.566C118.357 101.398 118.241 101.197 118.157 100.964C118.073 100.731 118.031 100.469 118.031 100.18C118.031 99.8953 118.073 99.6363 118.157 99.403C118.241 99.165 118.357 98.962 118.507 98.794C118.661 98.626 118.843 98.4977 119.053 98.409C119.263 98.3157 119.491 98.269 119.739 98.269C119.986 98.269 120.215 98.3157 120.425 98.409C120.635 98.4977 120.814 98.626 120.964 98.794C121.118 98.962 121.237 99.165 121.321 99.403C121.405 99.6363 121.447 99.8953 121.447 100.18ZM120.768 100.18C120.768 99.7693 120.674 99.445 120.488 99.207C120.306 98.9643 120.056 98.843 119.739 98.843C119.421 98.843 119.169 98.9643 118.983 99.207C118.801 99.445 118.71 99.7693 118.71 100.18C118.71 100.591 118.801 100.917 118.983 101.16C119.169 101.398 119.421 101.517 119.739 101.517C120.056 101.517 120.306 101.398 120.488 101.16C120.674 100.917 120.768 100.591 120.768 100.18ZM125.261 101.895C125.111 101.932 124.913 101.972 124.666 102.014C124.423 102.056 124.141 102.077 123.819 102.077C123.539 102.077 123.303 102.037 123.112 101.958C122.92 101.874 122.766 101.757 122.65 101.608C122.533 101.459 122.449 101.284 122.398 101.083C122.346 100.878 122.321 100.651 122.321 100.404V98.36H122.972V100.264C122.972 100.707 123.042 101.025 123.182 101.216C123.322 101.407 123.557 101.503 123.889 101.503C123.959 101.503 124.031 101.501 124.106 101.496C124.18 101.491 124.25 101.487 124.316 101.482C124.381 101.473 124.439 101.466 124.491 101.461C124.547 101.452 124.586 101.442 124.61 101.433V98.36H125.261V101.895ZM128.002 98.465C128.152 98.4277 128.348 98.388 128.59 98.346C128.838 98.304 129.122 98.283 129.444 98.283C129.678 98.283 129.874 98.3157 130.032 98.381C130.191 98.4417 130.324 98.5327 130.431 98.654C130.464 98.6307 130.515 98.598 130.585 98.556C130.655 98.514 130.742 98.4743 130.844 98.437C130.947 98.395 131.061 98.36 131.187 98.332C131.313 98.2993 131.449 98.283 131.593 98.283C131.873 98.283 132.102 98.325 132.279 98.409C132.457 98.4883 132.594 98.6027 132.692 98.752C132.795 98.9013 132.863 99.0787 132.895 99.284C132.933 99.4893 132.951 99.7133 132.951 99.956V102H132.3V100.096C132.3 99.8813 132.289 99.697 132.265 99.543C132.247 99.389 132.207 99.2607 132.146 99.158C132.09 99.0553 132.011 98.9807 131.908 98.934C131.81 98.8827 131.682 98.857 131.523 98.857C131.304 98.857 131.122 98.8873 130.977 98.948C130.837 99.004 130.742 99.0553 130.69 99.102C130.728 99.2233 130.756 99.3563 130.774 99.501C130.793 99.6457 130.802 99.7973 130.802 99.956V102H130.151V100.096C130.151 99.8813 130.14 99.697 130.116 99.543C130.093 99.389 130.051 99.2607 129.99 99.158C129.934 99.0553 129.855 98.9807 129.752 98.934C129.654 98.8827 129.528 98.857 129.374 98.857C129.309 98.857 129.239 98.8593 129.164 98.864C129.09 98.8687 129.017 98.8757 128.947 98.885C128.882 98.8897 128.821 98.8967 128.765 98.906C128.709 98.9153 128.672 98.9223 128.653 98.927V102H128.002V98.465ZM137.245 100.18C137.245 100.469 137.203 100.731 137.119 100.964C137.035 101.197 136.916 101.398 136.762 101.566C136.612 101.734 136.433 101.865 136.223 101.958C136.013 102.047 135.784 102.091 135.537 102.091C135.289 102.091 135.061 102.047 134.851 101.958C134.641 101.865 134.459 101.734 134.305 101.566C134.155 101.398 134.039 101.197 133.955 100.964C133.871 100.731 133.829 100.469 133.829 100.18C133.829 99.8953 133.871 99.6363 133.955 99.403C134.039 99.165 134.155 98.962 134.305 98.794C134.459 98.626 134.641 98.4977 134.851 98.409C135.061 98.3157 135.289 98.269 135.537 98.269C135.784 98.269 136.013 98.3157 136.223 98.409C136.433 98.4977 136.612 98.626 136.762 98.794C136.916 98.962 137.035 99.165 137.119 99.403C137.203 99.6363 137.245 99.8953 137.245 100.18ZM136.566 100.18C136.566 99.7693 136.472 99.445 136.286 99.207C136.104 98.9643 135.854 98.843 135.537 98.843C135.219 98.843 134.967 98.9643 134.781 99.207C134.599 99.445 134.508 99.7693 134.508 100.18C134.508 100.591 134.599 100.917 134.781 101.16C134.967 101.398 135.219 101.517 135.537 101.517C135.854 101.517 136.104 101.398 136.286 101.16C136.472 100.917 136.566 100.591 136.566 100.18ZM140.907 98.36C140.725 99.0413 140.51 99.6947 140.263 100.32C140.02 100.945 139.785 101.505 139.556 102H138.968C138.739 101.505 138.501 100.945 138.254 100.32C138.011 99.6947 137.799 99.0413 137.617 98.36H138.317C138.373 98.5887 138.438 98.8337 138.513 99.095C138.592 99.3517 138.674 99.6083 138.758 99.865C138.847 100.117 138.935 100.362 139.024 100.6C139.113 100.838 139.197 101.05 139.276 101.237C139.355 101.05 139.439 100.838 139.528 100.6C139.617 100.362 139.703 100.117 139.787 99.865C139.876 99.6083 139.957 99.3517 140.032 99.095C140.111 98.8337 140.179 98.5887 140.235 98.36H140.907ZM142.23 102H141.579V98.36H142.23V102ZM141.901 97.702C141.784 97.702 141.684 97.6647 141.6 97.59C141.52 97.5107 141.481 97.4057 141.481 97.275C141.481 97.1443 141.52 97.0417 141.6 96.967C141.684 96.8877 141.784 96.848 141.901 96.848C142.017 96.848 142.115 96.8877 142.195 96.967C142.279 97.0417 142.321 97.1443 142.321 97.275C142.321 97.4057 142.279 97.5107 142.195 97.59C142.115 97.6647 142.017 97.702 141.901 97.702ZM143.349 98.465C143.498 98.4277 143.697 98.388 143.944 98.346C144.191 98.304 144.476 98.283 144.798 98.283C145.087 98.283 145.328 98.325 145.519 98.409C145.71 98.4883 145.862 98.6027 145.974 98.752C146.091 98.8967 146.172 99.0717 146.219 99.277C146.266 99.4823 146.289 99.7087 146.289 99.956V102H145.638V100.096C145.638 99.872 145.622 99.6807 145.589 99.522C145.561 99.3633 145.512 99.235 145.442 99.137C145.372 99.039 145.279 98.969 145.162 98.927C145.045 98.8803 144.901 98.857 144.728 98.857C144.658 98.857 144.586 98.8593 144.511 98.864C144.436 98.8687 144.364 98.8757 144.294 98.885C144.229 98.8897 144.168 98.8967 144.112 98.906C144.061 98.9153 144.023 98.9223 144 98.927V102H143.349V98.465ZM149.651 101.636C149.595 101.673 149.485 101.722 149.322 101.783C149.163 101.839 148.976 101.867 148.762 101.867C148.542 101.867 148.335 101.832 148.139 101.762C147.947 101.692 147.779 101.585 147.635 101.44C147.49 101.291 147.376 101.106 147.292 100.887C147.208 100.668 147.166 100.406 147.166 100.103C147.166 99.837 147.205 99.5943 147.285 99.375C147.364 99.151 147.478 98.9597 147.628 98.801C147.782 98.6377 147.968 98.5117 148.188 98.423C148.407 98.3297 148.654 98.283 148.93 98.283C149.233 98.283 149.497 98.3063 149.721 98.353C149.949 98.395 150.141 98.4347 150.295 98.472V101.72C150.295 102.28 150.15 102.686 149.861 102.938C149.571 103.19 149.133 103.316 148.545 103.316C148.316 103.316 148.099 103.297 147.894 103.26C147.693 103.223 147.518 103.178 147.369 103.127L147.488 102.56C147.618 102.611 147.777 102.656 147.964 102.693C148.155 102.735 148.353 102.756 148.559 102.756C148.946 102.756 149.224 102.679 149.392 102.525C149.564 102.371 149.651 102.126 149.651 101.79V101.636ZM149.644 98.934C149.578 98.9153 149.49 98.899 149.378 98.885C149.27 98.8663 149.123 98.857 148.937 98.857C148.587 98.857 148.316 98.9713 148.125 99.2C147.938 99.4287 147.845 99.732 147.845 100.11C147.845 100.32 147.87 100.5 147.922 100.649C147.978 100.798 148.05 100.922 148.139 101.02C148.232 101.118 148.337 101.19 148.454 101.237C148.575 101.284 148.699 101.307 148.825 101.307C148.997 101.307 149.156 101.284 149.301 101.237C149.445 101.186 149.56 101.127 149.644 101.062V98.934Z" fill="white"/>
<path d="M66.8685 22.5776L60.1861 10.9922C59.7684 10.2245 58.8983 9.98021 58.1326 10.2245L49.8145 13.5745C48.0743 12.2484 46.2297 11.1318 44.1762 10.2943L42.9233 1.43073C42.7841 0.593229 42.088 0 41.2527 0H27.8879C27.0526 0 26.3914 0.593229 26.2521 1.43073L24.9992 10.2943C22.9458 11.1318 21.0664 12.2833 19.361 13.5745L11.0428 10.2245C10.2771 9.94531 9.407 10.2245 8.98935 10.9922L2.34179 22.5776C1.92414 23.3104 2.06335 24.2177 2.75943 24.7062L9.82465 30.2198C9.65063 31.2667 9.51141 32.4182 9.51141 33.5C9.51141 34.5818 9.58102 35.7333 9.75504 36.7802L2.68983 42.2938C2.06335 42.7823 1.88933 43.7245 2.27218 44.4224L8.95455 56.0078C9.3722 56.7755 10.2423 57.0198 11.008 56.7755L19.3261 53.4255C21.0664 54.7516 22.911 55.8682 24.9644 56.7057L26.2173 65.5693C26.3914 66.4068 27.0526 67 27.8879 67H41.2527C42.088 67 42.7841 66.4068 42.8885 65.5693L43.5149 61.1375C35.4707 57.5921 31.2001 49.0485 30.0703 45.2199C25.3851 43.3974 22.0409 38.8213 22.0409 33.5C22.0409 26.5906 27.6791 20.9375 34.5703 20.9375C38.0553 20.9375 41.2199 22.3833 43.4969 24.7062C45.7201 25.5226 53.507 26.2397 66.8685 22.5776Z" fill="#C9C9C9"/>
<path fill-rule="evenodd" clip-rule="evenodd" d="M118.757 45.4226C102.757 44.6226 68.7565 39.7559 53.7565 37.4226C39.7562 35.3344 40.5044 46.0385 41.2568 48.4226C42.0703 51 44.5902 54.5892 46.2568 56.4226C35.4568 52.0226 30.7568 40.9226 29.7568 35.9226C26.8286 26.1619 33.8463 26.1047 39.8859 27.948C40.6906 28.1358 41.9394 28.4486 43.7565 28.9226C51.9345 31.056 60.0444 28.7524 63.632 27.7333C64.0804 27.6059 64.4581 27.4986 64.7565 27.4226C85.1565 22.2226 100.07 27.4226 105.257 29.4226C110.07 31.279 116.57 36 119.757 39.9226C121.926 42.5934 124.07 43 128.757 43.4226C144.334 44.8275 151.923 53.3307 153.757 58.9226C147.757 50.9226 138.757 46.4226 118.757 45.4226ZM60.2568 31.4226C58.8528 32.0466 60.2568 33.6658 62.7568 34.4226C66.1407 35.447 87.7568 37.4226 87.7568 37.4226C87.7568 37.4226 85.4235 29.7559 84.7568 27.9226C84.557 27.373 84.2815 27.382 83.4783 27.4082C83.2743 27.4148 83.0363 27.4226 82.7568 27.4226C81.0703 27.4226 64.7568 29.4226 60.2568 31.4226ZM89.5718 37.5013C89.5718 37.5013 86.993 30.1119 86.5703 28C86.1476 25.888 105.573 29.4994 113.934 37.9726C115.271 39.3273 115.417 40.7797 111.935 40.4728C106.57 39.9999 89.5718 37.5013 89.5718 37.5013Z" fill="white"/>
<path d="M69.0035 48.6776L131.307 58.0408C133.941 54.6363 140.219 49.9509 144.259 58.4453C142.528 57.7519 137.631 56.8531 137.631 56.8531L133.199 61.7229L136.205 67.2689C136.205 67.2689 141.562 68.1395 143.016 67.5172C140.668 70.5044 134.844 74.2024 130.341 65.0967L67.6692 58.4215L69.0035 48.6776Z" fill="#C9C9C9"/>
<path d="M70.0703 52C70.0703 58.6274 64.6977 64 58.0703 64C51.4429 64 46.0703 58.6274 46.0703 52C46.0703 45.3726 51.4429 40 58.0703 40C64.6977 40 70.0703 45.3726 70.0703 52ZM52.8819 52C52.8819 54.8655 55.2048 57.1885 58.0703 57.1885C60.9358 57.1885 63.2588 54.8655 63.2588 52C63.2588 49.1345 60.9358 46.8115 58.0703 46.8115C55.2048 46.8115 52.8819 49.1345 52.8819 52Z" fill="#C9C9C9"/>
</svg>
