<svg width="154" height="104" viewBox="0 0 154 104" fill="none" xmlns="http://www.w3.org/2000/svg">
<path d="M24.165 90.12C24.225 90.13 24.255 90.165 24.255 90.225C24.255 90.325 24.205 90.36 24.105 90.33C23.625 90.2 22.91 90.12 21.96 90.09C21.66 90.08 20.735 90.075 19.185 90.075C18.605 90.075 17.8 90.11 16.77 90.18C16.69 90.18 16.645 90.15 16.635 90.09C16.635 90.02 16.67 89.98 16.74 89.97C17.42 89.9 17.88 89.815 18.12 89.715C18.9 89.415 19.275 88.865 19.245 88.0649H16.05C15.74 88.465 15.585 88.665 15.585 88.665C15.425 88.905 15.345 89.1349 15.345 89.3549C15.345 89.5449 15.425 89.725 15.585 89.895C15.625 89.945 15.64 89.99 15.63 90.03C15.61 90.07 15.565 90.09 15.495 90.09L9.435 90.135C9.355 90.135 9.315 90.105 9.315 90.045C9.305 89.975 9.335 89.93 9.405 89.91C10.635 89.61 11.25 89.24 11.25 88.8C11.1 88.95 10.91 89.025 10.68 89.025C10.3 89.025 9.855 88.8849 9.345 88.6049C8.835 88.3149 8.385 88.17 7.995 88.17C7.645 88.17 7.29 88.255 6.93 88.425C6.87 88.455 6.825 88.45 6.795 88.41C6.755 88.37 6.755 88.3249 6.795 88.275C6.975 88.015 7.7 87.8049 8.97 87.6449C10.15 87.4949 10.74 87.295 10.74 87.045C10.74 86.875 10.625 86.74 10.395 86.64C10.165 86.53 9.915 86.4749 9.645 86.4749C9.255 86.4749 8.76 86.58 8.16 86.79C7.57 87 7.075 87.1049 6.675 87.1049C6.135 87.1049 5.475 86.92 4.695 86.55C3.915 86.18 3.265 85.995 2.745 85.995C2.425 85.995 2.115 86.095 1.815 86.295C1.795 86.305 1.775 86.3099 1.755 86.3099C1.675 86.3099 1.635 86.275 1.635 86.205C1.635 86.165 1.65 86.135 1.68 86.115C2.12 85.765 2.71 85.59 3.45 85.59C3.84 85.59 4.335 85.645 4.935 85.755C5.545 85.865 6.025 85.92 6.375 85.92C6.555 85.92 6.725 85.865 6.885 85.755C7.055 85.645 7.14 85.505 7.14 85.335C7.14 84.475 6.155 84.045 4.185 84.045C3.955 84.045 3.615 84.055 3.165 84.075C2.715 84.085 2.385 84.0899 2.175 84.0899C1.155 84.0899 0.44 83.91 0.03 83.55C0.00999993 83.53 0 83.51 0 83.49C0 83.4 0.04 83.3549 0.12 83.3549C0.15 83.3549 0.175 83.37 0.195 83.4C0.285 83.53 0.505 83.645 0.855 83.745C1.205 83.835 1.555 83.88 1.905 83.88C2.305 83.88 2.94 83.7299 3.81 83.4299C4.69 83.1299 5.425 82.9799 6.015 82.9799C6.755 82.9799 7.685 83.1849 8.805 83.5949C9.925 84.0049 10.855 84.21 11.595 84.21C11.985 84.21 12.325 84.15 12.615 84.03C12.965 83.88 13.14 83.6849 13.14 83.445C13.14 83.1849 12.795 83.0549 12.105 83.0549C11.935 83.0549 11.69 83.0799 11.37 83.1299C11.05 83.1799 10.78 83.205 10.56 83.205C9.84 83.205 8.955 82.8799 7.905 82.2299C6.865 81.5799 5.995 81.255 5.295 81.255C5.005 81.255 4.615 81.35 4.125 81.54C4.055 81.5699 4.01 81.5499 3.99 81.4799C3.96 81.4199 3.98 81.375 4.05 81.3449C4.95 80.915 5.835 80.6999 6.705 80.6999C7.195 80.6999 7.82 80.855 8.58 81.1649C9.35 81.4749 9.945 81.6299 10.365 81.6299C10.505 81.6299 10.635 81.5899 10.755 81.5099C10.885 81.4199 10.95 81.3249 10.95 81.2249C10.95 80.8849 10.595 80.4799 9.885 80.0099C9.135 79.5299 8.445 79.2899 7.815 79.2899C7.495 79.2899 7.275 79.3099 7.155 79.3499C7.085 79.3799 7.04 79.3599 7.02 79.2899C6.99 79.2099 7.01 79.1599 7.08 79.1399C7.44 79.0199 7.82 78.9599 8.22 78.9599C9.03 78.9599 9.905 79.1349 10.845 79.4849C11.025 79.555 11.765 79.885 13.065 80.4749C13.835 80.8249 14.425 80.9999 14.835 80.9999C15.035 80.9999 15.215 80.9499 15.375 80.85C15.545 80.7399 15.63 80.5949 15.63 80.4149C15.63 80.2149 15.47 80.0499 15.15 79.9199C14.9 79.8199 14.655 79.7699 14.415 79.7699C14.175 79.7699 13.9 79.8399 13.59 79.9799C13.48 80.0299 13.425 79.9949 13.425 79.875C13.425 79.825 13.45 79.79 13.5 79.7699C14.76 79.2899 15.865 79.0499 16.815 79.0499C17.385 79.0499 18.12 79.1649 19.02 79.3949C19.92 79.6249 20.675 79.7399 21.285 79.7399C22.125 79.7399 22.855 79.5149 23.475 79.0649C23.535 79.0249 23.585 79.0249 23.625 79.0649C23.665 79.1049 23.665 79.1549 23.625 79.2149C23.085 80.0249 22.815 81.1949 22.815 82.7249C22.815 85.5049 22.845 87.165 22.905 87.705C23.055 89.175 23.475 89.98 24.165 90.12ZM19.32 83.445V82.6499L17.505 85.5599H19.155V85.125C19.155 84.925 19.035 84.825 18.795 84.825C18.675 84.825 18.565 84.8499 18.465 84.9C18.415 84.9299 18.375 84.9249 18.345 84.8849C18.315 84.8449 18.32 84.805 18.36 84.765C18.56 84.595 18.755 84.425 18.945 84.255C19.195 84.025 19.32 83.7549 19.32 83.445Z" fill="white"/>
<path d="M36.5821 82.4849C36.0921 83.6049 35.6771 84.6849 35.3371 85.7249C35.0771 86.5049 34.8121 87.29 34.5421 88.08C34.2621 88.97 34.1221 89.58 34.1221 89.91C34.1221 90.03 34.1371 90.12 34.1671 90.18C34.1871 90.23 34.1871 90.275 34.1671 90.315C34.1371 90.355 34.0921 90.3649 34.0321 90.3449C33.5521 90.2149 33.0571 90.15 32.5471 90.15C31.7371 90.15 31.0271 90.25 30.4171 90.45C30.3571 90.47 30.3121 90.4649 30.2821 90.4349C30.2521 90.4049 30.2521 90.3599 30.2821 90.2999L30.5521 89.67C30.1421 89.86 29.7271 90.045 29.3071 90.225C28.8971 90.405 28.4871 90.495 28.0771 90.495C27.5371 90.495 27.1271 90.3099 26.8471 89.9399C26.6371 89.6599 26.4771 89.225 26.3671 88.635C25.9071 88.555 25.4621 88.54 25.0321 88.59C24.9621 88.6 24.9171 88.57 24.8971 88.5C24.8871 88.44 24.9171 88.4 24.9871 88.38C25.2071 88.34 25.4671 88.22 25.7671 88.02C26.0671 87.81 26.3271 87.68 26.5471 87.63L26.7271 87.075C26.4171 87.165 26.0421 87.21 25.6021 87.21C25.5021 87.21 25.2871 87.15 24.9571 87.03C24.8871 87.01 24.8571 86.97 24.8671 86.91C24.8771 86.86 24.9171 86.83 24.9871 86.82C25.1371 86.81 25.2871 86.8 25.4371 86.79C25.5871 86.77 25.6621 86.705 25.6621 86.595C25.6621 86.455 25.4121 86.37 24.9121 86.34C24.1721 86.3 23.6171 86.225 23.2471 86.115C23.1771 86.095 23.1521 86.055 23.1721 85.995C23.1821 85.925 23.2221 85.8949 23.2921 85.905C23.3921 85.915 23.4921 85.92 23.5921 85.92C23.8621 85.92 24.1871 85.86 24.5671 85.74C24.9571 85.62 25.2821 85.5599 25.5421 85.5599C25.6621 85.5599 25.9221 85.555 26.3221 85.545C26.6121 85.535 26.8771 85.535 27.1171 85.545L27.4921 84.57C27.1121 84.63 26.7221 84.66 26.3221 84.66C26.1021 84.66 25.8021 84.605 25.4221 84.495C25.0521 84.385 24.7921 84.335 24.6421 84.345C24.5721 84.345 24.5271 84.315 24.5071 84.255C24.4971 84.195 24.5271 84.1549 24.5971 84.1349C24.7671 84.0749 24.9621 84.055 25.1821 84.075C25.5821 84.105 25.7671 84.12 25.7371 84.12C26.3671 84.12 26.6821 83.9599 26.6821 83.6399C26.6821 83.4299 26.5321 83.27 26.2321 83.16C25.9821 83.06 25.7171 83.02 25.4371 83.04C25.3671 83.05 25.3221 83.02 25.3021 82.95C25.2821 82.89 25.3071 82.85 25.3771 82.83C25.6571 82.76 25.8421 82.7249 25.9321 82.7249C26.2221 82.7249 26.5871 82.7949 27.0271 82.9349C27.5071 83.0849 27.8471 83.1699 28.0471 83.1899L28.2871 82.5C28.3071 82.45 28.3421 82.425 28.3921 82.425L31.4521 82.3949C31.5021 82.3949 31.5371 82.405 31.5571 82.425C31.5771 82.4549 31.5771 82.4899 31.5571 82.5299L30.1171 86.34C30.0571 86.5 30.0271 86.6699 30.0271 86.8499C30.0271 87.0099 30.0721 87.1499 30.1621 87.2699C30.2621 87.3799 30.3821 87.4349 30.5221 87.4349C30.7721 87.4349 31.0371 87.16 31.3171 86.61C31.5571 86.1299 31.6771 85.81 31.6771 85.65C31.6771 85.52 31.6171 85.455 31.4971 85.455C31.2871 85.455 31.1321 85.485 31.0321 85.545C30.9821 85.575 30.9371 85.575 30.8971 85.545C30.8671 85.505 30.8671 85.4549 30.8971 85.3949C30.9771 85.2449 31.1771 85.115 31.4971 85.005C31.8271 84.885 32.0121 84.7799 32.0521 84.6899C32.5421 83.5999 32.7871 82.9849 32.7871 82.8449C32.7871 82.8049 32.7571 82.775 32.6971 82.755C32.6071 82.725 32.5571 82.7049 32.5471 82.6949C32.4171 82.6049 32.4221 82.535 32.5621 82.4849C32.8321 82.3849 33.1521 82.3349 33.5221 82.3349C33.7721 82.3349 34.0871 82.36 34.4671 82.41C34.8571 82.4599 35.1771 82.4849 35.4271 82.4849C35.6971 82.4849 36.0421 82.4349 36.4621 82.3349C36.5221 82.3249 36.5621 82.3349 36.5821 82.3649C36.6021 82.3949 36.6021 82.4349 36.5821 82.4849Z" fill="white"/>
<path d="M45.3691 81.945L44.0491 84.8849C44.0291 84.9349 43.9991 84.96 43.9591 84.96H42.8941C42.5241 85.53 42.3391 86.07 42.3391 86.58C42.3391 86.69 42.3891 86.79 42.4891 86.88C42.5891 86.97 42.6991 87.0149 42.8191 87.0149C43.1591 87.0149 43.4741 86.95 43.7641 86.82C43.8241 86.79 43.8691 86.79 43.8991 86.82C43.9291 86.85 43.9341 86.895 43.9141 86.955L42.7441 89.805L42.6841 89.865C41.7741 90.235 40.9691 90.42 40.2691 90.42C38.9791 90.42 38.2741 89.975 38.1541 89.085C37.6541 88.795 37.1841 88.675 36.7441 88.725C36.6741 88.735 36.6291 88.715 36.6091 88.665C36.5891 88.615 36.6091 88.57 36.6691 88.53C36.8191 88.43 37.1491 88.295 37.6591 88.125C38.0091 88.005 38.1841 87.855 38.1841 87.675C38.1841 87.435 38.0391 87.275 37.7491 87.195C37.5991 87.155 37.3191 87.135 36.9091 87.135C36.8091 87.135 36.6741 87.145 36.5041 87.165C36.3441 87.175 36.2091 87.18 36.0991 87.18C36.0291 87.18 35.8141 87.095 35.4541 86.925C35.3941 86.885 35.3741 86.835 35.3941 86.775C35.4141 86.7249 35.4591 86.705 35.5291 86.715C35.7191 86.755 35.8491 86.775 35.9191 86.775C36.2691 86.775 36.7091 86.63 37.2391 86.34C37.7691 86.04 38.2441 85.91 38.6641 85.95L39.0091 85.05H38.0191C37.9191 85.05 37.8841 84.9999 37.9141 84.9L38.3041 83.58C37.7841 83.36 37.1441 83.25 36.3841 83.25C36.2441 83.25 36.1041 83.265 35.9641 83.295C35.8941 83.305 35.8491 83.285 35.8291 83.235C35.8091 83.175 35.8291 83.125 35.8891 83.085C36.1991 82.925 36.6591 82.8199 37.2691 82.7699C37.6991 82.7299 37.9141 82.6249 37.9141 82.455C37.9141 82.3749 37.7491 82.28 37.4191 82.17C37.0391 82.04 36.8041 81.9049 36.7141 81.7649C36.6741 81.7149 36.6691 81.6699 36.6991 81.6299C36.7191 81.5899 36.7591 81.5799 36.8191 81.6C36.9391 81.6399 37.0441 81.6599 37.1341 81.6599C37.2341 81.6599 37.3541 81.6549 37.4941 81.6449C37.6441 81.6249 37.7641 81.6149 37.8541 81.6149C38.0041 81.6149 38.1891 81.6699 38.4091 81.7799C38.6291 81.8799 38.8091 81.9299 38.9491 81.9299H40.1491L40.5991 80.8949C40.5091 80.8349 40.3841 80.8049 40.2241 80.8049C40.1841 80.8049 40.1091 80.8099 39.9991 80.8199C39.8891 80.8199 39.8091 80.8199 39.7591 80.8199C39.5491 80.8199 39.3741 80.7849 39.2341 80.7149C39.1841 80.6749 39.1641 80.6349 39.1741 80.5949C39.1741 80.5449 39.2091 80.5149 39.2791 80.5049C39.4291 80.4849 39.7041 80.3899 40.1041 80.2199C40.4241 80.0899 40.7241 80.0349 41.0041 80.0549L41.1541 79.665C41.1741 79.625 41.2091 79.6049 41.2591 79.6049L44.6191 79.6349C44.7291 79.6349 44.7641 79.6849 44.7241 79.7849L43.9291 81.75L45.2791 81.7949C45.3691 81.7949 45.3991 81.8449 45.3691 81.945Z" fill="white"/>
<path d="M55.7524 84.84C55.7524 86.34 55.1024 87.67 53.8024 88.83C52.5124 89.99 51.0624 90.57 49.4524 90.57C48.1724 90.57 47.1974 89.94 46.5274 88.68C46.5074 88.63 46.4074 88.6049 46.2274 88.6049C46.1174 88.6049 45.8874 88.675 45.5374 88.8149C45.1974 88.945 44.9224 89.01 44.7124 89.01C44.6224 89.01 44.5274 88.995 44.4274 88.965C44.2674 88.915 44.1624 88.885 44.1124 88.875C44.0624 88.865 44.0374 88.8299 44.0374 88.7699C44.0374 88.6599 44.0874 88.625 44.1874 88.665C44.2474 88.685 44.3224 88.695 44.4124 88.695C44.6424 88.695 44.8574 88.645 45.0574 88.545C45.2974 88.425 45.4174 88.27 45.4174 88.08C45.4174 87.95 45.3574 87.845 45.2374 87.765C45.1174 87.685 44.9824 87.6449 44.8324 87.6449C44.7024 87.6449 44.5024 87.665 44.2324 87.705C44.0124 87.735 43.8124 87.74 43.6324 87.72C43.5624 87.71 43.5324 87.6699 43.5424 87.5999C43.5424 87.5299 43.5824 87.5 43.6624 87.51C43.8324 87.53 44.1374 87.445 44.5774 87.255C45.0274 87.055 45.4374 86.955 45.8074 86.955C45.9774 86.955 46.1524 86.97 46.3324 87C46.3824 86.8 46.4674 86.575 46.5874 86.325C46.3574 86.085 45.9224 85.95 45.2824 85.92C44.6124 85.89 44.1674 85.775 43.9474 85.575C43.8974 85.525 43.8824 85.475 43.9024 85.425C43.9324 85.375 43.9824 85.365 44.0524 85.3949C44.3124 85.4949 44.4924 85.545 44.5924 85.545C44.8924 85.545 45.2574 85.43 45.6874 85.2C46.1174 84.96 46.4824 84.84 46.7824 84.84C46.9124 84.84 47.0924 84.8549 47.3224 84.8849C47.4724 84.6649 47.6924 84.4149 47.9824 84.1349C47.9024 84.0649 47.8224 84.03 47.7424 84.03C47.6224 84.03 47.4674 84.0549 47.2774 84.1049C47.0874 84.1549 46.9324 84.18 46.8124 84.18C46.7724 84.18 46.6074 84.16 46.3174 84.12C46.2474 84.11 46.2174 84.07 46.2274 84C46.2374 83.93 46.2774 83.9 46.3474 83.91C46.5574 83.95 46.8174 83.905 47.1274 83.775C47.4474 83.6449 47.6074 83.5299 47.6074 83.4299C47.6074 83.2999 47.4374 83.2299 47.0974 83.2199C46.8874 83.2299 46.6724 83.235 46.4524 83.235C46.2724 83.225 46.1024 83.1949 45.9424 83.1449C45.8724 83.1249 45.8474 83.085 45.8674 83.025C45.8874 82.955 45.9324 82.9249 46.0024 82.9349C46.1324 82.9449 46.2574 82.95 46.3774 82.95C46.8974 82.95 47.3974 82.855 47.8774 82.665C48.3574 82.475 48.6424 82.38 48.7324 82.38C48.8924 82.38 49.0724 82.4399 49.2724 82.5599C49.4724 82.6699 49.6374 82.74 49.7674 82.7699C50.7774 82.2799 51.7124 82.035 52.5724 82.035C53.4124 82.035 54.1524 82.3049 54.7924 82.8449C55.4324 83.3749 55.7524 84.04 55.7524 84.84ZM52.2424 85.0199C52.2424 84.8299 52.1524 84.735 51.9724 84.735C51.5224 84.735 51.0674 84.975 50.6074 85.455C50.1274 85.965 49.8874 86.495 49.8874 87.045C49.8874 87.215 49.9324 87.38 50.0224 87.54C50.1224 87.69 50.2474 87.765 50.3974 87.765C50.6874 87.765 50.9874 87.62 51.2974 87.33C51.5774 87.05 51.7174 86.815 51.7174 86.625C51.7174 86.505 51.6724 86.445 51.5824 86.445C51.4024 86.445 51.2824 86.46 51.2224 86.49C51.1724 86.51 51.1224 86.5199 51.0724 86.5199C50.9024 86.5199 50.8174 86.4349 50.8174 86.2649C50.8174 86.1749 50.8574 86.105 50.9374 86.055C51.2174 85.945 51.4924 85.84 51.7624 85.74C52.0824 85.6 52.2424 85.36 52.2424 85.0199Z" fill="white"/>
<path d="M76.2268 79.5449L74.3068 83.2649C74.2668 83.3449 74.2068 83.355 74.1268 83.295C73.6368 82.905 73.1268 82.7099 72.5968 82.7099C71.7668 82.7099 71.0268 82.9749 70.3768 83.5049C69.7068 84.0649 69.3718 84.725 69.3718 85.485C69.3718 85.955 69.5968 86.33 70.0468 86.61C70.4468 86.86 70.9268 86.985 71.4868 86.985C72.1668 86.985 72.7968 86.765 73.3768 86.325C73.4468 86.275 73.5018 86.265 73.5418 86.295C73.5918 86.335 73.6018 86.39 73.5718 86.46L72.2668 89.76C72.2668 89.8 72.2418 89.82 72.1918 89.82C71.3218 90.14 70.5068 90.2999 69.7468 90.2999C68.6768 90.2999 67.6968 90.1099 66.8068 89.7299C66.3068 89.5199 65.7068 89.17 65.0068 88.68C64.4668 88.3 64.0918 88.11 63.8818 88.11C63.5418 88.11 63.1168 88.23 62.6068 88.47C62.1068 88.7 61.6868 88.8149 61.3468 88.8149C61.0568 88.8149 60.6768 88.765 60.2068 88.665C59.7468 88.555 59.4118 88.5 59.2018 88.5C58.9418 88.5 58.6918 88.55 58.4518 88.65C58.3318 88.7 58.2718 88.665 58.2718 88.545C58.2718 88.505 58.2968 88.4699 58.3468 88.4399C58.5268 88.3299 58.8918 88.275 59.4418 88.275C59.5618 88.275 59.7018 88.275 59.8618 88.275C60.0218 88.2849 60.1518 88.29 60.2518 88.29C60.7418 88.29 61.1918 88.15 61.6018 87.87C62.0218 87.58 62.2318 87.27 62.2318 86.9399C62.2318 86.6299 62.0268 86.4749 61.6168 86.4749C61.5468 86.4749 61.3318 86.525 60.9718 86.625C60.6218 86.725 60.2718 86.775 59.9218 86.775C59.2418 86.775 58.5368 86.555 57.8068 86.115C57.0768 85.675 56.5568 85.455 56.2468 85.455C55.8968 85.455 55.5368 85.51 55.1668 85.62C55.0668 85.65 55.0168 85.615 55.0168 85.5149C55.0168 85.4649 55.0418 85.43 55.0918 85.41C55.7018 85.24 56.1218 85.155 56.3518 85.155C56.7618 85.155 57.2818 85.22 57.9118 85.35C58.5418 85.47 59.0518 85.53 59.4418 85.53C59.6518 85.53 59.8518 85.47 60.0418 85.35C60.2318 85.22 60.3268 85.055 60.3268 84.8549C60.3268 84.5549 60.0268 84.33 59.4268 84.18C58.9768 84.07 58.4268 84.0149 57.7768 84.0149C56.3368 84.0149 55.1418 83.8499 54.1918 83.5199C54.1218 83.4999 54.0968 83.455 54.1168 83.385C54.1368 83.315 54.1868 83.2899 54.2668 83.3099C54.6468 83.3999 54.9518 83.445 55.1818 83.445C55.7218 83.445 56.4068 83.35 57.2368 83.16C58.0668 82.96 58.7468 82.86 59.2768 82.86C59.9168 82.86 60.6568 83.03 61.4968 83.37C62.3468 83.71 63.0918 83.88 63.7318 83.88C64.0818 83.88 64.3918 83.8299 64.6618 83.7299C64.9818 83.6199 65.1418 83.47 65.1418 83.28C65.1418 83.0599 64.9568 82.95 64.5868 82.95C64.4468 82.95 64.2668 82.955 64.0468 82.965C63.8368 82.975 63.5968 82.9799 63.3268 82.9799C62.7868 82.9799 62.0218 82.7049 61.0318 82.1549C60.0418 81.5949 59.2068 81.3149 58.5268 81.3149C58.1468 81.3149 57.6618 81.4399 57.0718 81.6899C56.9718 81.7299 56.9218 81.6999 56.9218 81.6C56.9218 81.5599 56.9418 81.5299 56.9818 81.5099C57.9018 81.0699 58.7218 80.85 59.4418 80.85C59.8518 80.85 60.3668 80.9299 60.9868 81.0899C61.6168 81.2499 62.1318 81.33 62.5318 81.33C62.6718 81.33 62.8218 81.265 62.9818 81.1349C63.1418 81.0049 63.2218 80.8599 63.2218 80.6999C63.2218 80.2999 62.9518 79.9999 62.4118 79.7999C62.1518 79.6999 61.5718 79.5699 60.6718 79.4099C59.9018 79.2799 59.3718 79.1249 59.0818 78.9449C59.0418 78.9149 59.0218 78.8799 59.0218 78.8399C59.0218 78.7199 59.0818 78.6849 59.2018 78.7349C59.5918 78.9649 60.0368 79.0799 60.5368 79.0799C60.7968 79.0799 61.1268 79.0599 61.5268 79.0199C61.9368 78.9699 62.2668 78.9449 62.5168 78.9449C63.1668 78.9449 63.9118 79.1099 64.7518 79.4399C65.5918 79.7699 66.3418 79.935 67.0018 79.935C67.6718 79.935 68.5868 79.8249 69.7468 79.6049C70.9168 79.3749 71.8368 79.2599 72.5068 79.2599C72.8668 79.2599 73.3318 79.3099 73.9018 79.4099C74.4718 79.5099 74.9418 79.5599 75.3118 79.5599C75.5518 79.5599 75.8018 79.5049 76.0618 79.3949C76.1318 79.3649 76.1818 79.3699 76.2118 79.4099C76.2518 79.4399 76.2568 79.4849 76.2268 79.5449Z" fill="white"/>
<path d="M84.2947 83.7299C84.2947 84.28 84.0647 84.975 83.6047 85.8149C83.1547 86.645 82.9297 87.235 82.9297 87.585C82.9297 87.685 83.0397 87.7599 83.2597 87.8099C83.4597 87.8599 83.6397 87.81 83.7997 87.66C83.8397 87.61 83.8847 87.6 83.9347 87.63C83.9847 87.66 83.9947 87.705 83.9647 87.765C83.6347 88.565 83.4697 89.285 83.4697 89.925C83.4697 90.015 83.4247 90.05 83.3347 90.03C81.5247 89.97 80.2797 90.0299 79.5997 90.2099C79.5297 90.2299 79.4847 90.22 79.4647 90.18C79.4347 90.14 79.4397 90.095 79.4797 90.045C79.5597 89.935 79.6897 89.625 79.8697 89.115C79.2597 89.565 78.7847 89.87 78.4447 90.03C77.9547 90.27 77.4447 90.3899 76.9147 90.3899C76.2447 90.3899 75.6747 90.06 75.2047 89.4C74.9447 89.52 74.7297 89.58 74.5597 89.58C74.3797 89.58 74.1497 89.495 73.8697 89.325C73.5997 89.155 73.3547 89.08 73.1347 89.1C73.0647 89.11 73.0247 89.085 73.0147 89.025C73.0047 88.955 73.0347 88.91 73.1047 88.89C73.2247 88.84 73.3447 88.8149 73.4647 88.8149C73.5647 88.8149 73.7147 88.84 73.9147 88.89C74.1247 88.94 74.2997 88.965 74.4397 88.965C74.6297 88.965 74.8197 88.905 75.0097 88.785C75.1097 88.205 75.3347 87.675 75.6847 87.195C75.5047 87.215 75.1947 87.29 74.7547 87.42C74.3747 87.54 74.0847 87.5999 73.8847 87.5999C73.8047 87.5999 73.7297 87.595 73.6597 87.585C73.5897 87.565 73.5597 87.52 73.5697 87.45C73.5697 87.39 73.6047 87.36 73.6747 87.36C74.5047 87.36 74.9197 87.1349 74.9197 86.6849C74.9197 86.5049 74.8197 86.415 74.6197 86.415C74.5197 86.415 74.3347 86.445 74.0647 86.505C73.7947 86.565 73.5997 86.595 73.4797 86.595C73.4197 86.595 73.3497 86.585 73.2697 86.5649C73.1797 86.545 73.1147 86.535 73.0747 86.535C73.0047 86.525 72.9697 86.485 72.9697 86.415C72.9797 86.355 73.0247 86.325 73.1047 86.325C73.3947 86.345 73.7147 86.2699 74.0647 86.0999C74.4147 85.9199 74.7097 85.83 74.9497 85.83C75.1897 85.83 75.4847 85.9 75.8347 86.04C76.1947 86.18 76.4897 86.2549 76.7197 86.2649C77.8497 85.5449 79.1047 85.1849 80.4847 85.1849C80.5047 84.8149 80.2647 84.63 79.7647 84.63C78.8947 84.63 78.2197 84.7849 77.7397 85.0949C77.6897 85.1349 77.6447 85.1399 77.6047 85.11C77.5647 85.0799 77.5547 85.0349 77.5747 84.9749C77.5947 84.8149 77.6247 84.58 77.6647 84.2699C77.4647 84.3 77.2697 84.3149 77.0797 84.3149C76.8697 84.3149 76.4047 84.25 75.6847 84.12C75.6147 84.11 75.5847 84.07 75.5947 84C75.5947 83.94 75.6297 83.91 75.6997 83.91C76.6697 83.91 77.1547 83.7749 77.1547 83.5049C77.1547 83.2649 77.0047 83.11 76.7047 83.04C76.5347 83 76.2447 82.9799 75.8347 82.9799C75.6547 82.9799 75.4747 83.015 75.2947 83.085C75.2247 83.115 75.1797 83.0899 75.1597 83.0099C75.1297 82.9399 75.1497 82.895 75.2197 82.875C75.7197 82.715 76.1247 82.6349 76.4347 82.6349C76.6847 82.6349 76.9997 82.6649 77.3797 82.7249C77.7697 82.7749 78.0897 82.7999 78.3397 82.7999C78.6897 82.7999 79.3197 82.67 80.2297 82.41C81.1497 82.1399 81.8747 82.0049 82.4047 82.0049C82.8947 82.0049 83.3247 82.1549 83.6947 82.455C84.0947 82.785 84.2947 83.2099 84.2947 83.7299ZM80.0797 86.4749C79.5797 86.6149 79.1347 86.805 78.7447 87.045C78.2747 87.345 78.0397 87.65 78.0397 87.96C78.0397 88.2 78.2097 88.32 78.5497 88.32C78.9297 88.32 79.2697 88.22 79.5697 88.02L80.0797 86.4749Z" fill="white"/>
<path d="M94.9634 82.2599C94.7234 82.4799 94.4234 83.015 94.0634 83.865C93.6634 84.8049 93.3434 85.4299 93.1034 85.74C93.0334 85.83 92.9684 85.815 92.9084 85.695C92.8584 85.5649 92.7734 85.5 92.6534 85.5C92.3534 85.5 91.9784 85.625 91.5284 85.875C91.1984 86.065 90.9284 86.25 90.7184 86.43C90.5184 86.92 90.2884 87.555 90.0284 88.335C89.7784 89.115 89.6534 89.5799 89.6534 89.7299C89.6534 89.8199 89.6984 89.9449 89.7884 90.1049C89.8084 90.1549 89.8084 90.195 89.7884 90.225C89.7584 90.255 89.7134 90.2649 89.6534 90.2549C88.8434 90.1549 88.2184 90.1049 87.7784 90.1049C86.3684 90.1049 85.6634 90.1049 85.6634 90.1049C85.6034 90.1049 85.5634 90.0899 85.5434 90.0599C85.5134 90.0299 85.5134 89.9899 85.5434 89.9399L86.1884 88.695C86.0884 88.565 85.9984 88.5 85.9184 88.5C85.8584 88.5 85.7784 88.51 85.6784 88.53C85.5784 88.55 85.4984 88.56 85.4384 88.56C85.2484 88.56 85.0084 88.52 84.7184 88.4399C84.4284 88.3499 84.1984 88.305 84.0284 88.305C83.9384 88.305 83.7734 88.355 83.5334 88.455C83.5134 88.465 83.4934 88.47 83.4734 88.47C83.4234 88.47 83.3884 88.4449 83.3684 88.3949C83.3584 88.3549 83.3734 88.3149 83.4134 88.275C83.6034 88.0749 83.8584 87.955 84.1784 87.915C84.3084 87.895 84.6334 87.885 85.1534 87.885C85.3234 87.885 85.5534 87.84 85.8434 87.75C86.1334 87.66 86.3984 87.6249 86.6384 87.6449L87.1184 86.385H86.9534C86.8234 86.385 86.6584 86.4149 86.4584 86.4749C86.2584 86.5249 86.0934 86.55 85.9634 86.55C85.6834 86.56 85.4034 86.53 85.1234 86.46C85.0534 86.44 85.0184 86.405 85.0184 86.3549C85.0184 86.2949 85.0534 86.26 85.1234 86.25C85.2734 86.23 85.4234 86.21 85.5734 86.1899C85.7234 86.1699 85.8584 86.115 85.9784 86.025C86.4584 85.675 86.9834 85.425 87.5534 85.275L87.7484 84.705C87.4184 84.385 87.0634 84.2249 86.6834 84.2249C86.5834 84.2249 86.4534 84.24 86.2934 84.2699C86.1334 84.3 86.0034 84.3149 85.9034 84.3149C85.7234 84.3149 85.4834 84.2849 85.1834 84.2249C84.8934 84.1649 84.6584 84.1349 84.4784 84.1349C84.3784 84.1349 84.2284 84.1649 84.0284 84.2249C83.9584 84.2449 83.9084 84.22 83.8784 84.15C83.8584 84.08 83.8834 84.0349 83.9534 84.0149C84.1534 83.9449 84.3284 83.91 84.4784 83.91C84.5984 83.91 84.7534 83.93 84.9434 83.97C85.1334 84 85.2834 84.0149 85.3934 84.0149C85.9034 84.0149 86.1584 83.855 86.1584 83.535C86.1584 83.315 86.0034 83.205 85.6934 83.205C85.6334 83.205 85.5534 83.215 85.4534 83.235C85.3534 83.245 85.2734 83.25 85.2134 83.25C84.9934 83.25 84.7384 83.205 84.4484 83.115C84.3784 83.095 84.3534 83.0499 84.3734 82.9799C84.4034 82.9099 84.4534 82.885 84.5234 82.905C84.7234 82.965 84.8884 82.995 85.0184 82.995C85.2184 82.995 85.4684 82.955 85.7684 82.875C86.0684 82.795 86.3134 82.755 86.5034 82.755C86.7134 82.755 86.9534 82.845 87.2234 83.025C87.5134 83.235 87.7984 83.3599 88.0784 83.4L88.3634 82.6049C88.3834 82.535 88.3634 82.435 88.3034 82.305C88.2834 82.255 88.2834 82.2149 88.3034 82.1849C88.3234 82.1649 88.3634 82.1549 88.4234 82.1549C89.8934 82.1849 91.0734 82.1899 91.9634 82.17C92.0134 82.17 92.0484 82.18 92.0684 82.1999C92.0784 82.22 92.0784 82.255 92.0684 82.305L91.7984 83.16C93.0984 82.38 94.1334 82.0199 94.9034 82.08C94.9634 82.08 94.9984 82.1 95.0084 82.1399C95.0184 82.1799 95.0034 82.2199 94.9634 82.2599Z" fill="white"/>
<path d="M103.681 84.9C103.681 85.3499 103.616 85.9749 103.486 86.775C103.466 86.845 103.431 86.88 103.381 86.88H98.5812C98.5712 87.22 98.7062 87.48 98.9862 87.66C99.2262 87.81 99.5212 87.885 99.8712 87.885C100.781 87.885 101.516 87.67 102.076 87.24C102.136 87.19 102.186 87.185 102.226 87.225C102.266 87.265 102.271 87.3199 102.241 87.3899C102.101 87.6799 101.966 88.3899 101.836 89.5199C101.836 89.5599 101.821 89.59 101.791 89.61C101.041 90.19 100.071 90.4799 98.8812 90.4799C96.9612 90.4799 95.8062 89.88 95.4162 88.68C94.7262 88.76 94.1612 88.725 93.7212 88.575C93.6512 88.555 93.6162 88.515 93.6162 88.455C93.6162 88.405 93.6512 88.375 93.7212 88.365C94.0212 88.305 94.2912 88.195 94.5312 88.035C94.8312 87.825 94.9812 87.58 94.9812 87.3C94.9812 87.01 94.8212 86.8049 94.5012 86.6849C94.3612 86.6349 94.0212 86.5799 93.4812 86.5199C93.0212 86.4599 92.7012 86.37 92.5212 86.25C92.4612 86.21 92.4412 86.165 92.4612 86.115C92.4812 86.065 92.5262 86.045 92.5962 86.055C92.7362 86.085 92.8662 86.0999 92.9862 86.0999C93.1862 86.0999 93.4412 86.04 93.7512 85.92C94.0712 85.79 94.3362 85.7249 94.5462 85.7249C94.7262 85.7249 94.9662 85.77 95.2662 85.86C95.3862 85.55 95.6162 85.135 95.9562 84.615C95.3062 84.615 94.8362 84.5549 94.5462 84.4349C94.4962 84.4149 94.4712 84.38 94.4712 84.33C94.4712 84.21 94.5262 84.1749 94.6362 84.2249C94.6962 84.2549 94.7762 84.2699 94.8762 84.2699C95.0462 84.2699 95.2012 84.2299 95.3412 84.15C95.4912 84.0599 95.5562 83.9449 95.5362 83.8049C95.5062 83.5449 95.2712 83.415 94.8312 83.415C94.7512 83.415 94.6412 83.425 94.5012 83.445C94.3612 83.4549 94.2462 83.46 94.1562 83.46C94.0262 83.46 93.7812 83.435 93.4212 83.385C93.3512 83.375 93.3212 83.3349 93.3312 83.2649C93.3412 83.1949 93.3812 83.165 93.4512 83.175C93.7212 83.215 94.0612 83.165 94.4712 83.025C94.8912 82.875 95.2212 82.7999 95.4612 82.7999C95.6312 82.7999 95.8612 82.875 96.1512 83.025C96.4412 83.165 96.7162 83.2499 96.9762 83.28C98.5262 82.4299 99.7712 82.0049 100.711 82.0049C101.541 82.0049 102.231 82.255 102.781 82.755C103.381 83.295 103.681 84.0099 103.681 84.9ZM101.116 84.825C101.116 84.645 101.066 84.49 100.966 84.36C100.866 84.22 100.736 84.15 100.576 84.15C100.116 84.15 99.6262 84.48 99.1062 85.14L101.011 85.17C101.081 85.03 101.116 84.915 101.116 84.825Z" fill="white"/>
<path d="M66.8685 22.5776L60.1861 10.9922C59.7684 10.2245 58.8983 9.98021 58.1326 10.2245L49.8145 13.5745C48.0743 12.2484 46.2297 11.1318 44.1762 10.2943L42.9233 1.43073C42.7841 0.593229 42.088 0 41.2527 0H27.8879C27.0526 0 26.3914 0.593229 26.2521 1.43073L24.9992 10.2943C22.9458 11.1318 21.0664 12.2833 19.361 13.5745L11.0428 10.2245C10.2771 9.94531 9.407 10.2245 8.98935 10.9922L2.34179 22.5776C1.92414 23.3104 2.06335 24.2177 2.75943 24.7062L9.82465 30.2198C9.65063 31.2667 9.51141 32.4182 9.51141 33.5C9.51141 34.5818 9.58102 35.7333 9.75504 36.7802L2.68983 42.2938C2.06335 42.7823 1.88933 43.7245 2.27218 44.4224L8.95455 56.0078C9.3722 56.7755 10.2423 57.0198 11.008 56.7755L19.3261 53.4255C21.0664 54.7516 22.911 55.8682 24.9644 56.7057L26.2173 65.5693C26.3914 66.4068 27.0526 67 27.8879 67H41.2527C42.088 67 42.7841 66.4068 42.8885 65.5693L43.5149 61.1375C35.4707 57.5921 31.2001 49.0485 30.0703 45.2199C25.3851 43.3974 22.0409 38.8213 22.0409 33.5C22.0409 26.5906 27.6791 20.9375 34.5703 20.9375C38.0553 20.9375 41.2199 22.3833 43.4969 24.7062C45.7201 25.5226 53.507 26.2397 66.8685 22.5776Z" fill="#C9C9C9"/>
<path fill-rule="evenodd" clip-rule="evenodd" d="M118.757 45.4226C102.757 44.6226 68.7565 39.7559 53.7565 37.4226C39.7562 35.3344 40.5044 46.0385 41.2568 48.4226C42.0703 51 44.5902 54.5892 46.2568 56.4226C35.4568 52.0226 30.7568 40.9226 29.7568 35.9226C26.8286 26.1619 33.8463 26.1047 39.8859 27.948C40.6906 28.1358 41.9394 28.4486 43.7565 28.9226C51.9345 31.056 60.0444 28.7524 63.632 27.7333C64.0804 27.6059 64.4581 27.4986 64.7565 27.4226C85.1565 22.2226 100.07 27.4226 105.257 29.4226C110.07 31.279 116.57 36 119.757 39.9226C121.926 42.5934 124.07 43 128.757 43.4226C144.334 44.8275 151.923 53.3307 153.757 58.9226C147.757 50.9226 138.757 46.4226 118.757 45.4226ZM60.2568 31.4226C58.8528 32.0466 60.2568 33.6658 62.7568 34.4226C66.1407 35.447 87.7568 37.4226 87.7568 37.4226C87.7568 37.4226 85.4235 29.7559 84.7568 27.9226C84.557 27.373 84.2815 27.382 83.4783 27.4082C83.2743 27.4148 83.0363 27.4226 82.7568 27.4226C81.0703 27.4226 64.7568 29.4226 60.2568 31.4226ZM89.5718 37.5013C89.5718 37.5013 86.993 30.1119 86.5703 28C86.1476 25.888 105.573 29.4994 113.934 37.9726C115.271 39.3273 115.417 40.7797 111.935 40.4728C106.57 39.9999 89.5718 37.5013 89.5718 37.5013Z" fill="white"/>
<path d="M69.0035 48.6776L131.307 58.0408C133.941 54.6363 140.219 49.9509 144.259 58.4453C142.528 57.7519 137.631 56.8531 137.631 56.8531L133.199 61.7229L136.205 67.2689C136.205 67.2689 141.562 68.1395 143.016 67.5172C140.668 70.5044 134.844 74.2024 130.341 65.0967L67.6692 58.4215L69.0035 48.6776Z" fill="#C9C9C9"/>
<path d="M70.0703 52C70.0703 58.6274 64.6977 64 58.0703 64C51.4429 64 46.0703 58.6274 46.0703 52C46.0703 45.3726 51.4429 40 58.0703 40C64.6977 40 70.0703 45.3726 70.0703 52ZM52.8819 52C52.8819 54.8655 55.2048 57.1885 58.0703 57.1885C60.9358 57.1885 63.2588 54.8655 63.2588 52C63.2588 49.1345 60.9358 46.8115 58.0703 46.8115C55.2048 46.8115 52.8819 49.1345 52.8819 52Z" fill="#C9C9C9"/>
</svg>
